<?xml version="1.0" encoding="utf-8" standalone="no"?>
<!DOCTYPE svg PUBLIC "-//W3C//DTD SVG 1.1//EN"
  "http://www.w3.org/Graphics/SVG/1.1/DTD/svg11.dtd">
<svg xmlns:xlink="http://www.w3.org/1999/xlink" width="1105.92pt" height="548.928pt" viewBox="0 0 1105.92 548.928" xmlns="http://www.w3.org/2000/svg" version="1.1">
 <metadata>
  <rdf:RDF xmlns:dc="http://purl.org/dc/elements/1.1/" xmlns:cc="http://creativecommons.org/ns#" xmlns:rdf="http://www.w3.org/1999/02/22-rdf-syntax-ns#">
   <cc:Work>
    <dc:type rdf:resource="http://purl.org/dc/dcmitype/StillImage"/>
    <dc:date>2022-11-12T15:36:17.559188</dc:date>
    <dc:format>image/svg+xml</dc:format>
    <dc:creator>
     <cc:Agent>
      <dc:title>Matplotlib v3.5.3, https://matplotlib.org/</dc:title>
     </cc:Agent>
    </dc:creator>
   </cc:Work>
  </rdf:RDF>
 </metadata>
 <defs>
  <style type="text/css">*{stroke-linejoin: round; stroke-linecap: butt}</style>
 </defs>
 <g id="figure_1">
  <g id="patch_1">
   <path d="M 0 548.928 
L 1105.92 548.928 
L 1105.92 0 
L 0 0 
z
" style="fill: #ffffff"/>
  </g>
  <g id="axes_1">
   <g id="patch_2">
    <path d="M 114.528 482.281533 
L 1060.992 482.281533 
L 1060.992 42.962431 
L 114.528 42.962431 
z
" style="fill: #ffffff"/>
   </g>
   <g id="matplotlib.axis_1">
    <g id="xtick_1">
     <g id="line2d_1">
      <path d="M 157.549091 482.281533 
L 157.549091 42.962431 
" clip-path="url(#p6ae5303fbb)" style="fill: none; stroke-dasharray: 5.12,1.28,0.8,1.28; stroke-dashoffset: 0; stroke: #b0b0b0; stroke-width: 0.8"/>
     </g>
     <g id="line2d_2">
      <defs>
       <path id="me9da54dfeb" d="M 0 0 
L 0 3.5 
" style="stroke: #000000; stroke-width: 3"/>
      </defs>
      <g>
       <use xlink:href="#me9da54dfeb" x="157.549091" y="482.281533" style="stroke: #000000; stroke-width: 3"/>
      </g>
     </g>
     <g id="text_1">
      <!-- 0.0 -->
      <g transform="translate(149.597528 496.879971)scale(0.1 -0.1)">
       <defs>
        <path id="DejaVuSans-30" d="M 2034 4250 
Q 1547 4250 1301 3770 
Q 1056 3291 1056 2328 
Q 1056 1369 1301 889 
Q 1547 409 2034 409 
Q 2525 409 2770 889 
Q 3016 1369 3016 2328 
Q 3016 3291 2770 3770 
Q 2525 4250 2034 4250 
z
M 2034 4750 
Q 2819 4750 3233 4129 
Q 3647 3509 3647 2328 
Q 3647 1150 3233 529 
Q 2819 -91 2034 -91 
Q 1250 -91 836 529 
Q 422 1150 422 2328 
Q 422 3509 836 4129 
Q 1250 4750 2034 4750 
z
" transform="scale(0.015625)"/>
        <path id="DejaVuSans-2e" d="M 684 794 
L 1344 794 
L 1344 0 
L 684 0 
L 684 794 
z
" transform="scale(0.015625)"/>
       </defs>
       <use xlink:href="#DejaVuSans-30"/>
       <use xlink:href="#DejaVuSans-2e" x="63.623047"/>
       <use xlink:href="#DejaVuSans-30" x="95.410156"/>
      </g>
     </g>
    </g>
    <g id="xtick_2">
     <g id="line2d_3">
      <path d="M 265.330168 482.281533 
L 265.330168 42.962431 
" clip-path="url(#p6ae5303fbb)" style="fill: none; stroke-dasharray: 5.12,1.28,0.8,1.28; stroke-dashoffset: 0; stroke: #b0b0b0; stroke-width: 0.8"/>
     </g>
     <g id="line2d_4">
      <g>
       <use xlink:href="#me9da54dfeb" x="265.330168" y="482.281533" style="stroke: #000000; stroke-width: 3"/>
      </g>
     </g>
     <g id="text_2">
      <!-- 2.5 -->
      <g transform="translate(257.378605 496.879971)scale(0.1 -0.1)">
       <defs>
        <path id="DejaVuSans-32" d="M 1228 531 
L 3431 531 
L 3431 0 
L 469 0 
L 469 531 
Q 828 903 1448 1529 
Q 2069 2156 2228 2338 
Q 2531 2678 2651 2914 
Q 2772 3150 2772 3378 
Q 2772 3750 2511 3984 
Q 2250 4219 1831 4219 
Q 1534 4219 1204 4116 
Q 875 4013 500 3803 
L 500 4441 
Q 881 4594 1212 4672 
Q 1544 4750 1819 4750 
Q 2544 4750 2975 4387 
Q 3406 4025 3406 3419 
Q 3406 3131 3298 2873 
Q 3191 2616 2906 2266 
Q 2828 2175 2409 1742 
Q 1991 1309 1228 531 
z
" transform="scale(0.015625)"/>
        <path id="DejaVuSans-35" d="M 691 4666 
L 3169 4666 
L 3169 4134 
L 1269 4134 
L 1269 2991 
Q 1406 3038 1543 3061 
Q 1681 3084 1819 3084 
Q 2600 3084 3056 2656 
Q 3513 2228 3513 1497 
Q 3513 744 3044 326 
Q 2575 -91 1722 -91 
Q 1428 -91 1123 -41 
Q 819 9 494 109 
L 494 744 
Q 775 591 1075 516 
Q 1375 441 1709 441 
Q 2250 441 2565 725 
Q 2881 1009 2881 1497 
Q 2881 1984 2565 2268 
Q 2250 2553 1709 2553 
Q 1456 2553 1204 2497 
Q 953 2441 691 2322 
L 691 4666 
z
" transform="scale(0.015625)"/>
       </defs>
       <use xlink:href="#DejaVuSans-32"/>
       <use xlink:href="#DejaVuSans-2e" x="63.623047"/>
       <use xlink:href="#DejaVuSans-35" x="95.410156"/>
      </g>
     </g>
    </g>
    <g id="xtick_3">
     <g id="line2d_5">
      <path d="M 373.111245 482.281533 
L 373.111245 42.962431 
" clip-path="url(#p6ae5303fbb)" style="fill: none; stroke-dasharray: 5.12,1.28,0.8,1.28; stroke-dashoffset: 0; stroke: #b0b0b0; stroke-width: 0.8"/>
     </g>
     <g id="line2d_6">
      <g>
       <use xlink:href="#me9da54dfeb" x="373.111245" y="482.281533" style="stroke: #000000; stroke-width: 3"/>
      </g>
     </g>
     <g id="text_3">
      <!-- 5.0 -->
      <g transform="translate(365.159682 496.879971)scale(0.1 -0.1)">
       <use xlink:href="#DejaVuSans-35"/>
       <use xlink:href="#DejaVuSans-2e" x="63.623047"/>
       <use xlink:href="#DejaVuSans-30" x="95.410156"/>
      </g>
     </g>
    </g>
    <g id="xtick_4">
     <g id="line2d_7">
      <path d="M 480.892322 482.281533 
L 480.892322 42.962431 
" clip-path="url(#p6ae5303fbb)" style="fill: none; stroke-dasharray: 5.12,1.28,0.8,1.28; stroke-dashoffset: 0; stroke: #b0b0b0; stroke-width: 0.8"/>
     </g>
     <g id="line2d_8">
      <g>
       <use xlink:href="#me9da54dfeb" x="480.892322" y="482.281533" style="stroke: #000000; stroke-width: 3"/>
      </g>
     </g>
     <g id="text_4">
      <!-- 7.5 -->
      <g transform="translate(472.940759 496.879971)scale(0.1 -0.1)">
       <defs>
        <path id="DejaVuSans-37" d="M 525 4666 
L 3525 4666 
L 3525 4397 
L 1831 0 
L 1172 0 
L 2766 4134 
L 525 4134 
L 525 4666 
z
" transform="scale(0.015625)"/>
       </defs>
       <use xlink:href="#DejaVuSans-37"/>
       <use xlink:href="#DejaVuSans-2e" x="63.623047"/>
       <use xlink:href="#DejaVuSans-35" x="95.410156"/>
      </g>
     </g>
    </g>
    <g id="xtick_5">
     <g id="line2d_9">
      <path d="M 588.673399 482.281533 
L 588.673399 42.962431 
" clip-path="url(#p6ae5303fbb)" style="fill: none; stroke-dasharray: 5.12,1.28,0.8,1.28; stroke-dashoffset: 0; stroke: #b0b0b0; stroke-width: 0.8"/>
     </g>
     <g id="line2d_10">
      <g>
       <use xlink:href="#me9da54dfeb" x="588.673399" y="482.281533" style="stroke: #000000; stroke-width: 3"/>
      </g>
     </g>
     <g id="text_5">
      <!-- 10.0 -->
      <g transform="translate(577.540586 496.879971)scale(0.1 -0.1)">
       <defs>
        <path id="DejaVuSans-31" d="M 794 531 
L 1825 531 
L 1825 4091 
L 703 3866 
L 703 4441 
L 1819 4666 
L 2450 4666 
L 2450 531 
L 3481 531 
L 3481 0 
L 794 0 
L 794 531 
z
" transform="scale(0.015625)"/>
       </defs>
       <use xlink:href="#DejaVuSans-31"/>
       <use xlink:href="#DejaVuSans-30" x="63.623047"/>
       <use xlink:href="#DejaVuSans-2e" x="127.246094"/>
       <use xlink:href="#DejaVuSans-30" x="159.033203"/>
      </g>
     </g>
    </g>
    <g id="xtick_6">
     <g id="line2d_11">
      <path d="M 696.454476 482.281533 
L 696.454476 42.962431 
" clip-path="url(#p6ae5303fbb)" style="fill: none; stroke-dasharray: 5.12,1.28,0.8,1.28; stroke-dashoffset: 0; stroke: #b0b0b0; stroke-width: 0.8"/>
     </g>
     <g id="line2d_12">
      <g>
       <use xlink:href="#me9da54dfeb" x="696.454476" y="482.281533" style="stroke: #000000; stroke-width: 3"/>
      </g>
     </g>
     <g id="text_6">
      <!-- 12.5 -->
      <g transform="translate(685.321663 496.879971)scale(0.1 -0.1)">
       <use xlink:href="#DejaVuSans-31"/>
       <use xlink:href="#DejaVuSans-32" x="63.623047"/>
       <use xlink:href="#DejaVuSans-2e" x="127.246094"/>
       <use xlink:href="#DejaVuSans-35" x="159.033203"/>
      </g>
     </g>
    </g>
    <g id="xtick_7">
     <g id="line2d_13">
      <path d="M 804.235553 482.281533 
L 804.235553 42.962431 
" clip-path="url(#p6ae5303fbb)" style="fill: none; stroke-dasharray: 5.12,1.28,0.8,1.28; stroke-dashoffset: 0; stroke: #b0b0b0; stroke-width: 0.8"/>
     </g>
     <g id="line2d_14">
      <g>
       <use xlink:href="#me9da54dfeb" x="804.235553" y="482.281533" style="stroke: #000000; stroke-width: 3"/>
      </g>
     </g>
     <g id="text_7">
      <!-- 15.0 -->
      <g transform="translate(793.10274 496.879971)scale(0.1 -0.1)">
       <use xlink:href="#DejaVuSans-31"/>
       <use xlink:href="#DejaVuSans-35" x="63.623047"/>
       <use xlink:href="#DejaVuSans-2e" x="127.246094"/>
       <use xlink:href="#DejaVuSans-30" x="159.033203"/>
      </g>
     </g>
    </g>
    <g id="xtick_8">
     <g id="line2d_15">
      <path d="M 912.01663 482.281533 
L 912.01663 42.962431 
" clip-path="url(#p6ae5303fbb)" style="fill: none; stroke-dasharray: 5.12,1.28,0.8,1.28; stroke-dashoffset: 0; stroke: #b0b0b0; stroke-width: 0.8"/>
     </g>
     <g id="line2d_16">
      <g>
       <use xlink:href="#me9da54dfeb" x="912.01663" y="482.281533" style="stroke: #000000; stroke-width: 3"/>
      </g>
     </g>
     <g id="text_8">
      <!-- 17.5 -->
      <g transform="translate(900.883817 496.879971)scale(0.1 -0.1)">
       <use xlink:href="#DejaVuSans-31"/>
       <use xlink:href="#DejaVuSans-37" x="63.623047"/>
       <use xlink:href="#DejaVuSans-2e" x="127.246094"/>
       <use xlink:href="#DejaVuSans-35" x="159.033203"/>
      </g>
     </g>
    </g>
    <g id="xtick_9">
     <g id="line2d_17">
      <path d="M 1019.797707 482.281533 
L 1019.797707 42.962431 
" clip-path="url(#p6ae5303fbb)" style="fill: none; stroke-dasharray: 5.12,1.28,0.8,1.28; stroke-dashoffset: 0; stroke: #b0b0b0; stroke-width: 0.8"/>
     </g>
     <g id="line2d_18">
      <g>
       <use xlink:href="#me9da54dfeb" x="1019.797707" y="482.281533" style="stroke: #000000; stroke-width: 3"/>
      </g>
     </g>
     <g id="text_9">
      <!-- 20.0 -->
      <g transform="translate(1008.664895 496.879971)scale(0.1 -0.1)">
       <use xlink:href="#DejaVuSans-32"/>
       <use xlink:href="#DejaVuSans-30" x="63.623047"/>
       <use xlink:href="#DejaVuSans-2e" x="127.246094"/>
       <use xlink:href="#DejaVuSans-30" x="159.033203"/>
      </g>
     </g>
    </g>
    <g id="xtick_10">
     <g id="line2d_19">
      <path d="M 135.992876 482.281533 
L 135.992876 42.962431 
" clip-path="url(#p6ae5303fbb)" style="fill: none; stroke-dasharray: 0.8,1.32; stroke-dashoffset: 0; stroke: #b0b0b0; stroke-width: 0.8"/>
     </g>
     <g id="line2d_20">
      <defs>
       <path id="mbfb31abf2f" d="M 0 0 
L 0 2 
" style="stroke: #000000; stroke-width: 0.6"/>
      </defs>
      <g>
       <use xlink:href="#mbfb31abf2f" x="135.992876" y="482.281533" style="stroke: #000000; stroke-width: 0.6"/>
      </g>
     </g>
    </g>
    <g id="xtick_11">
     <g id="line2d_21">
      <path d="M 179.105306 482.281533 
L 179.105306 42.962431 
" clip-path="url(#p6ae5303fbb)" style="fill: none; stroke-dasharray: 0.8,1.32; stroke-dashoffset: 0; stroke: #b0b0b0; stroke-width: 0.8"/>
     </g>
     <g id="line2d_22">
      <g>
       <use xlink:href="#mbfb31abf2f" x="179.105306" y="482.281533" style="stroke: #000000; stroke-width: 0.6"/>
      </g>
     </g>
    </g>
    <g id="xtick_12">
     <g id="line2d_23">
      <path d="M 200.661522 482.281533 
L 200.661522 42.962431 
" clip-path="url(#p6ae5303fbb)" style="fill: none; stroke-dasharray: 0.8,1.32; stroke-dashoffset: 0; stroke: #b0b0b0; stroke-width: 0.8"/>
     </g>
     <g id="line2d_24">
      <g>
       <use xlink:href="#mbfb31abf2f" x="200.661522" y="482.281533" style="stroke: #000000; stroke-width: 0.6"/>
      </g>
     </g>
    </g>
    <g id="xtick_13">
     <g id="line2d_25">
      <path d="M 222.217737 482.281533 
L 222.217737 42.962431 
" clip-path="url(#p6ae5303fbb)" style="fill: none; stroke-dasharray: 0.8,1.32; stroke-dashoffset: 0; stroke: #b0b0b0; stroke-width: 0.8"/>
     </g>
     <g id="line2d_26">
      <g>
       <use xlink:href="#mbfb31abf2f" x="222.217737" y="482.281533" style="stroke: #000000; stroke-width: 0.6"/>
      </g>
     </g>
    </g>
    <g id="xtick_14">
     <g id="line2d_27">
      <path d="M 243.773953 482.281533 
L 243.773953 42.962431 
" clip-path="url(#p6ae5303fbb)" style="fill: none; stroke-dasharray: 0.8,1.32; stroke-dashoffset: 0; stroke: #b0b0b0; stroke-width: 0.8"/>
     </g>
     <g id="line2d_28">
      <g>
       <use xlink:href="#mbfb31abf2f" x="243.773953" y="482.281533" style="stroke: #000000; stroke-width: 0.6"/>
      </g>
     </g>
    </g>
    <g id="xtick_15">
     <g id="line2d_29">
      <path d="M 286.886383 482.281533 
L 286.886383 42.962431 
" clip-path="url(#p6ae5303fbb)" style="fill: none; stroke-dasharray: 0.8,1.32; stroke-dashoffset: 0; stroke: #b0b0b0; stroke-width: 0.8"/>
     </g>
     <g id="line2d_30">
      <g>
       <use xlink:href="#mbfb31abf2f" x="286.886383" y="482.281533" style="stroke: #000000; stroke-width: 0.6"/>
      </g>
     </g>
    </g>
    <g id="xtick_16">
     <g id="line2d_31">
      <path d="M 308.442599 482.281533 
L 308.442599 42.962431 
" clip-path="url(#p6ae5303fbb)" style="fill: none; stroke-dasharray: 0.8,1.32; stroke-dashoffset: 0; stroke: #b0b0b0; stroke-width: 0.8"/>
     </g>
     <g id="line2d_32">
      <g>
       <use xlink:href="#mbfb31abf2f" x="308.442599" y="482.281533" style="stroke: #000000; stroke-width: 0.6"/>
      </g>
     </g>
    </g>
    <g id="xtick_17">
     <g id="line2d_33">
      <path d="M 329.998814 482.281533 
L 329.998814 42.962431 
" clip-path="url(#p6ae5303fbb)" style="fill: none; stroke-dasharray: 0.8,1.32; stroke-dashoffset: 0; stroke: #b0b0b0; stroke-width: 0.8"/>
     </g>
     <g id="line2d_34">
      <g>
       <use xlink:href="#mbfb31abf2f" x="329.998814" y="482.281533" style="stroke: #000000; stroke-width: 0.6"/>
      </g>
     </g>
    </g>
    <g id="xtick_18">
     <g id="line2d_35">
      <path d="M 351.55503 482.281533 
L 351.55503 42.962431 
" clip-path="url(#p6ae5303fbb)" style="fill: none; stroke-dasharray: 0.8,1.32; stroke-dashoffset: 0; stroke: #b0b0b0; stroke-width: 0.8"/>
     </g>
     <g id="line2d_36">
      <g>
       <use xlink:href="#mbfb31abf2f" x="351.55503" y="482.281533" style="stroke: #000000; stroke-width: 0.6"/>
      </g>
     </g>
    </g>
    <g id="xtick_19">
     <g id="line2d_37">
      <path d="M 394.66746 482.281533 
L 394.66746 42.962431 
" clip-path="url(#p6ae5303fbb)" style="fill: none; stroke-dasharray: 0.8,1.32; stroke-dashoffset: 0; stroke: #b0b0b0; stroke-width: 0.8"/>
     </g>
     <g id="line2d_38">
      <g>
       <use xlink:href="#mbfb31abf2f" x="394.66746" y="482.281533" style="stroke: #000000; stroke-width: 0.6"/>
      </g>
     </g>
    </g>
    <g id="xtick_20">
     <g id="line2d_39">
      <path d="M 416.223676 482.281533 
L 416.223676 42.962431 
" clip-path="url(#p6ae5303fbb)" style="fill: none; stroke-dasharray: 0.8,1.32; stroke-dashoffset: 0; stroke: #b0b0b0; stroke-width: 0.8"/>
     </g>
     <g id="line2d_40">
      <g>
       <use xlink:href="#mbfb31abf2f" x="416.223676" y="482.281533" style="stroke: #000000; stroke-width: 0.6"/>
      </g>
     </g>
    </g>
    <g id="xtick_21">
     <g id="line2d_41">
      <path d="M 437.779891 482.281533 
L 437.779891 42.962431 
" clip-path="url(#p6ae5303fbb)" style="fill: none; stroke-dasharray: 0.8,1.32; stroke-dashoffset: 0; stroke: #b0b0b0; stroke-width: 0.8"/>
     </g>
     <g id="line2d_42">
      <g>
       <use xlink:href="#mbfb31abf2f" x="437.779891" y="482.281533" style="stroke: #000000; stroke-width: 0.6"/>
      </g>
     </g>
    </g>
    <g id="xtick_22">
     <g id="line2d_43">
      <path d="M 459.336107 482.281533 
L 459.336107 42.962431 
" clip-path="url(#p6ae5303fbb)" style="fill: none; stroke-dasharray: 0.8,1.32; stroke-dashoffset: 0; stroke: #b0b0b0; stroke-width: 0.8"/>
     </g>
     <g id="line2d_44">
      <g>
       <use xlink:href="#mbfb31abf2f" x="459.336107" y="482.281533" style="stroke: #000000; stroke-width: 0.6"/>
      </g>
     </g>
    </g>
    <g id="xtick_23">
     <g id="line2d_45">
      <path d="M 502.448537 482.281533 
L 502.448537 42.962431 
" clip-path="url(#p6ae5303fbb)" style="fill: none; stroke-dasharray: 0.8,1.32; stroke-dashoffset: 0; stroke: #b0b0b0; stroke-width: 0.8"/>
     </g>
     <g id="line2d_46">
      <g>
       <use xlink:href="#mbfb31abf2f" x="502.448537" y="482.281533" style="stroke: #000000; stroke-width: 0.6"/>
      </g>
     </g>
    </g>
    <g id="xtick_24">
     <g id="line2d_47">
      <path d="M 524.004753 482.281533 
L 524.004753 42.962431 
" clip-path="url(#p6ae5303fbb)" style="fill: none; stroke-dasharray: 0.8,1.32; stroke-dashoffset: 0; stroke: #b0b0b0; stroke-width: 0.8"/>
     </g>
     <g id="line2d_48">
      <g>
       <use xlink:href="#mbfb31abf2f" x="524.004753" y="482.281533" style="stroke: #000000; stroke-width: 0.6"/>
      </g>
     </g>
    </g>
    <g id="xtick_25">
     <g id="line2d_49">
      <path d="M 545.560968 482.281533 
L 545.560968 42.962431 
" clip-path="url(#p6ae5303fbb)" style="fill: none; stroke-dasharray: 0.8,1.32; stroke-dashoffset: 0; stroke: #b0b0b0; stroke-width: 0.8"/>
     </g>
     <g id="line2d_50">
      <g>
       <use xlink:href="#mbfb31abf2f" x="545.560968" y="482.281533" style="stroke: #000000; stroke-width: 0.6"/>
      </g>
     </g>
    </g>
    <g id="xtick_26">
     <g id="line2d_51">
      <path d="M 567.117184 482.281533 
L 567.117184 42.962431 
" clip-path="url(#p6ae5303fbb)" style="fill: none; stroke-dasharray: 0.8,1.32; stroke-dashoffset: 0; stroke: #b0b0b0; stroke-width: 0.8"/>
     </g>
     <g id="line2d_52">
      <g>
       <use xlink:href="#mbfb31abf2f" x="567.117184" y="482.281533" style="stroke: #000000; stroke-width: 0.6"/>
      </g>
     </g>
    </g>
    <g id="xtick_27">
     <g id="line2d_53">
      <path d="M 610.229614 482.281533 
L 610.229614 42.962431 
" clip-path="url(#p6ae5303fbb)" style="fill: none; stroke-dasharray: 0.8,1.32; stroke-dashoffset: 0; stroke: #b0b0b0; stroke-width: 0.8"/>
     </g>
     <g id="line2d_54">
      <g>
       <use xlink:href="#mbfb31abf2f" x="610.229614" y="482.281533" style="stroke: #000000; stroke-width: 0.6"/>
      </g>
     </g>
    </g>
    <g id="xtick_28">
     <g id="line2d_55">
      <path d="M 631.78583 482.281533 
L 631.78583 42.962431 
" clip-path="url(#p6ae5303fbb)" style="fill: none; stroke-dasharray: 0.8,1.32; stroke-dashoffset: 0; stroke: #b0b0b0; stroke-width: 0.8"/>
     </g>
     <g id="line2d_56">
      <g>
       <use xlink:href="#mbfb31abf2f" x="631.78583" y="482.281533" style="stroke: #000000; stroke-width: 0.6"/>
      </g>
     </g>
    </g>
    <g id="xtick_29">
     <g id="line2d_57">
      <path d="M 653.342045 482.281533 
L 653.342045 42.962431 
" clip-path="url(#p6ae5303fbb)" style="fill: none; stroke-dasharray: 0.8,1.32; stroke-dashoffset: 0; stroke: #b0b0b0; stroke-width: 0.8"/>
     </g>
     <g id="line2d_58">
      <g>
       <use xlink:href="#mbfb31abf2f" x="653.342045" y="482.281533" style="stroke: #000000; stroke-width: 0.6"/>
      </g>
     </g>
    </g>
    <g id="xtick_30">
     <g id="line2d_59">
      <path d="M 674.898261 482.281533 
L 674.898261 42.962431 
" clip-path="url(#p6ae5303fbb)" style="fill: none; stroke-dasharray: 0.8,1.32; stroke-dashoffset: 0; stroke: #b0b0b0; stroke-width: 0.8"/>
     </g>
     <g id="line2d_60">
      <g>
       <use xlink:href="#mbfb31abf2f" x="674.898261" y="482.281533" style="stroke: #000000; stroke-width: 0.6"/>
      </g>
     </g>
    </g>
    <g id="xtick_31">
     <g id="line2d_61">
      <path d="M 718.010691 482.281533 
L 718.010691 42.962431 
" clip-path="url(#p6ae5303fbb)" style="fill: none; stroke-dasharray: 0.8,1.32; stroke-dashoffset: 0; stroke: #b0b0b0; stroke-width: 0.8"/>
     </g>
     <g id="line2d_62">
      <g>
       <use xlink:href="#mbfb31abf2f" x="718.010691" y="482.281533" style="stroke: #000000; stroke-width: 0.6"/>
      </g>
     </g>
    </g>
    <g id="xtick_32">
     <g id="line2d_63">
      <path d="M 739.566907 482.281533 
L 739.566907 42.962431 
" clip-path="url(#p6ae5303fbb)" style="fill: none; stroke-dasharray: 0.8,1.32; stroke-dashoffset: 0; stroke: #b0b0b0; stroke-width: 0.8"/>
     </g>
     <g id="line2d_64">
      <g>
       <use xlink:href="#mbfb31abf2f" x="739.566907" y="482.281533" style="stroke: #000000; stroke-width: 0.6"/>
      </g>
     </g>
    </g>
    <g id="xtick_33">
     <g id="line2d_65">
      <path d="M 761.123122 482.281533 
L 761.123122 42.962431 
" clip-path="url(#p6ae5303fbb)" style="fill: none; stroke-dasharray: 0.8,1.32; stroke-dashoffset: 0; stroke: #b0b0b0; stroke-width: 0.8"/>
     </g>
     <g id="line2d_66">
      <g>
       <use xlink:href="#mbfb31abf2f" x="761.123122" y="482.281533" style="stroke: #000000; stroke-width: 0.6"/>
      </g>
     </g>
    </g>
    <g id="xtick_34">
     <g id="line2d_67">
      <path d="M 782.679338 482.281533 
L 782.679338 42.962431 
" clip-path="url(#p6ae5303fbb)" style="fill: none; stroke-dasharray: 0.8,1.32; stroke-dashoffset: 0; stroke: #b0b0b0; stroke-width: 0.8"/>
     </g>
     <g id="line2d_68">
      <g>
       <use xlink:href="#mbfb31abf2f" x="782.679338" y="482.281533" style="stroke: #000000; stroke-width: 0.6"/>
      </g>
     </g>
    </g>
    <g id="xtick_35">
     <g id="line2d_69">
      <path d="M 825.791768 482.281533 
L 825.791768 42.962431 
" clip-path="url(#p6ae5303fbb)" style="fill: none; stroke-dasharray: 0.8,1.32; stroke-dashoffset: 0; stroke: #b0b0b0; stroke-width: 0.8"/>
     </g>
     <g id="line2d_70">
      <g>
       <use xlink:href="#mbfb31abf2f" x="825.791768" y="482.281533" style="stroke: #000000; stroke-width: 0.6"/>
      </g>
     </g>
    </g>
    <g id="xtick_36">
     <g id="line2d_71">
      <path d="M 847.347984 482.281533 
L 847.347984 42.962431 
" clip-path="url(#p6ae5303fbb)" style="fill: none; stroke-dasharray: 0.8,1.32; stroke-dashoffset: 0; stroke: #b0b0b0; stroke-width: 0.8"/>
     </g>
     <g id="line2d_72">
      <g>
       <use xlink:href="#mbfb31abf2f" x="847.347984" y="482.281533" style="stroke: #000000; stroke-width: 0.6"/>
      </g>
     </g>
    </g>
    <g id="xtick_37">
     <g id="line2d_73">
      <path d="M 868.904199 482.281533 
L 868.904199 42.962431 
" clip-path="url(#p6ae5303fbb)" style="fill: none; stroke-dasharray: 0.8,1.32; stroke-dashoffset: 0; stroke: #b0b0b0; stroke-width: 0.8"/>
     </g>
     <g id="line2d_74">
      <g>
       <use xlink:href="#mbfb31abf2f" x="868.904199" y="482.281533" style="stroke: #000000; stroke-width: 0.6"/>
      </g>
     </g>
    </g>
    <g id="xtick_38">
     <g id="line2d_75">
      <path d="M 890.460415 482.281533 
L 890.460415 42.962431 
" clip-path="url(#p6ae5303fbb)" style="fill: none; stroke-dasharray: 0.8,1.32; stroke-dashoffset: 0; stroke: #b0b0b0; stroke-width: 0.8"/>
     </g>
     <g id="line2d_76">
      <g>
       <use xlink:href="#mbfb31abf2f" x="890.460415" y="482.281533" style="stroke: #000000; stroke-width: 0.6"/>
      </g>
     </g>
    </g>
    <g id="xtick_39">
     <g id="line2d_77">
      <path d="M 933.572845 482.281533 
L 933.572845 42.962431 
" clip-path="url(#p6ae5303fbb)" style="fill: none; stroke-dasharray: 0.8,1.32; stroke-dashoffset: 0; stroke: #b0b0b0; stroke-width: 0.8"/>
     </g>
     <g id="line2d_78">
      <g>
       <use xlink:href="#mbfb31abf2f" x="933.572845" y="482.281533" style="stroke: #000000; stroke-width: 0.6"/>
      </g>
     </g>
    </g>
    <g id="xtick_40">
     <g id="line2d_79">
      <path d="M 955.129061 482.281533 
L 955.129061 42.962431 
" clip-path="url(#p6ae5303fbb)" style="fill: none; stroke-dasharray: 0.8,1.32; stroke-dashoffset: 0; stroke: #b0b0b0; stroke-width: 0.8"/>
     </g>
     <g id="line2d_80">
      <g>
       <use xlink:href="#mbfb31abf2f" x="955.129061" y="482.281533" style="stroke: #000000; stroke-width: 0.6"/>
      </g>
     </g>
    </g>
    <g id="xtick_41">
     <g id="line2d_81">
      <path d="M 976.685276 482.281533 
L 976.685276 42.962431 
" clip-path="url(#p6ae5303fbb)" style="fill: none; stroke-dasharray: 0.8,1.32; stroke-dashoffset: 0; stroke: #b0b0b0; stroke-width: 0.8"/>
     </g>
     <g id="line2d_82">
      <g>
       <use xlink:href="#mbfb31abf2f" x="976.685276" y="482.281533" style="stroke: #000000; stroke-width: 0.6"/>
      </g>
     </g>
    </g>
    <g id="xtick_42">
     <g id="line2d_83">
      <path d="M 998.241492 482.281533 
L 998.241492 42.962431 
" clip-path="url(#p6ae5303fbb)" style="fill: none; stroke-dasharray: 0.8,1.32; stroke-dashoffset: 0; stroke: #b0b0b0; stroke-width: 0.8"/>
     </g>
     <g id="line2d_84">
      <g>
       <use xlink:href="#mbfb31abf2f" x="998.241492" y="482.281533" style="stroke: #000000; stroke-width: 0.6"/>
      </g>
     </g>
    </g>
    <g id="xtick_43">
     <g id="line2d_85">
      <path d="M 1041.353922 482.281533 
L 1041.353922 42.962431 
" clip-path="url(#p6ae5303fbb)" style="fill: none; stroke-dasharray: 0.8,1.32; stroke-dashoffset: 0; stroke: #b0b0b0; stroke-width: 0.8"/>
     </g>
     <g id="line2d_86">
      <g>
       <use xlink:href="#mbfb31abf2f" x="1041.353922" y="482.281533" style="stroke: #000000; stroke-width: 0.6"/>
      </g>
     </g>
    </g>
    <g id="text_10">
     <!-- Время измерения (с) -->
     <g transform="translate(532.937344 510.558096)scale(0.1 -0.1)">
      <defs>
       <path id="DejaVuSans-412" d="M 1259 2228 
L 1259 519 
L 2272 519 
Q 2781 519 3026 730 
Q 3272 941 3272 1375 
Q 3272 1813 3026 2020 
Q 2781 2228 2272 2228 
L 1259 2228 
z
M 1259 4147 
L 1259 2741 
L 2194 2741 
Q 2656 2741 2882 2914 
Q 3109 3088 3109 3444 
Q 3109 3797 2882 3972 
Q 2656 4147 2194 4147 
L 1259 4147 
z
M 628 4666 
L 2241 4666 
Q 2963 4666 3353 4366 
Q 3744 4066 3744 3513 
Q 3744 3084 3544 2831 
Q 3344 2578 2956 2516 
Q 3422 2416 3680 2098 
Q 3938 1781 3938 1306 
Q 3938 681 3513 340 
Q 3088 0 2303 0 
L 628 0 
L 628 4666 
z
" transform="scale(0.015625)"/>
       <path id="DejaVuSans-440" d="M 1159 525 
L 1159 -1331 
L 581 -1331 
L 581 3500 
L 1159 3500 
L 1159 2969 
Q 1341 3281 1617 3432 
Q 1894 3584 2278 3584 
Q 2916 3584 3314 3078 
Q 3713 2572 3713 1747 
Q 3713 922 3314 415 
Q 2916 -91 2278 -91 
Q 1894 -91 1617 61 
Q 1341 213 1159 525 
z
M 3116 1747 
Q 3116 2381 2855 2742 
Q 2594 3103 2138 3103 
Q 1681 3103 1420 2742 
Q 1159 2381 1159 1747 
Q 1159 1113 1420 752 
Q 1681 391 2138 391 
Q 2594 391 2855 752 
Q 3116 1113 3116 1747 
z
" transform="scale(0.015625)"/>
       <path id="DejaVuSans-435" d="M 3597 1894 
L 3597 1613 
L 953 1613 
Q 991 1019 1311 708 
Q 1631 397 2203 397 
Q 2534 397 2845 478 
Q 3156 559 3463 722 
L 3463 178 
Q 3153 47 2828 -22 
Q 2503 -91 2169 -91 
Q 1331 -91 842 396 
Q 353 884 353 1716 
Q 353 2575 817 3079 
Q 1281 3584 2069 3584 
Q 2775 3584 3186 3129 
Q 3597 2675 3597 1894 
z
M 3022 2063 
Q 3016 2534 2758 2815 
Q 2500 3097 2075 3097 
Q 1594 3097 1305 2825 
Q 1016 2553 972 2059 
L 3022 2063 
z
" transform="scale(0.015625)"/>
       <path id="DejaVuSans-43c" d="M 581 3500 
L 1422 3500 
L 2416 1156 
L 3413 3500 
L 4247 3500 
L 4247 0 
L 3669 0 
L 3669 2950 
L 2703 672 
L 2128 672 
L 1159 2950 
L 1159 0 
L 581 0 
L 581 3500 
z
" transform="scale(0.015625)"/>
       <path id="DejaVuSans-44f" d="M 1181 2491 
Q 1181 2231 1381 2084 
Q 1581 1938 1953 1938 
L 2728 1938 
L 2728 3041 
L 1953 3041 
Q 1581 3041 1381 2897 
Q 1181 2753 1181 2491 
z
M 363 0 
L 1431 1534 
Q 1069 1616 828 1830 
Q 588 2044 588 2491 
Q 588 2997 923 3248 
Q 1259 3500 1938 3500 
L 3306 3500 
L 3306 0 
L 2728 0 
L 2728 1478 
L 2013 1478 
L 981 0 
L 363 0 
z
" transform="scale(0.015625)"/>
       <path id="DejaVuSans-20" transform="scale(0.015625)"/>
       <path id="DejaVuSans-438" d="M 3578 3500 
L 3578 0 
L 3006 0 
L 3006 2809 
L 1319 0 
L 581 0 
L 581 3500 
L 1153 3500 
L 1153 697 
L 2838 3500 
L 3578 3500 
z
" transform="scale(0.015625)"/>
       <path id="DejaVuSans-437" d="M 2206 1888 
Q 2594 1813 2809 1584 
Q 3025 1356 3025 1019 
Q 3025 478 2622 193 
Q 2219 -91 1475 -91 
Q 1225 -91 961 -47 
Q 697 -3 416 84 
L 416 619 
Q 638 503 903 445 
Q 1169 388 1459 388 
Q 1931 388 2195 563 
Q 2459 738 2459 1019 
Q 2459 1294 2225 1461 
Q 1991 1628 1563 1628 
L 1100 1628 
L 1100 2103 
L 1584 2103 
Q 1947 2103 2158 2242 
Q 2369 2381 2369 2600 
Q 2369 2800 2151 2944 
Q 1934 3088 1563 3088 
Q 1341 3088 1089 3047 
Q 838 3006 534 2916 
L 534 3438 
Q 841 3513 1106 3550 
Q 1372 3588 1609 3588 
Q 2222 3588 2576 3342 
Q 2931 3097 2931 2656 
Q 2931 2366 2743 2164 
Q 2556 1963 2206 1888 
z
" transform="scale(0.015625)"/>
       <path id="DejaVuSans-43d" d="M 581 3500 
L 1159 3500 
L 1159 2072 
L 3025 2072 
L 3025 3500 
L 3603 3500 
L 3603 0 
L 3025 0 
L 3025 1613 
L 1159 1613 
L 1159 0 
L 581 0 
L 581 3500 
z
" transform="scale(0.015625)"/>
       <path id="DejaVuSans-28" d="M 1984 4856 
Q 1566 4138 1362 3434 
Q 1159 2731 1159 2009 
Q 1159 1288 1364 580 
Q 1569 -128 1984 -844 
L 1484 -844 
Q 1016 -109 783 600 
Q 550 1309 550 2009 
Q 550 2706 781 3412 
Q 1013 4119 1484 4856 
L 1984 4856 
z
" transform="scale(0.015625)"/>
       <path id="DejaVuSans-441" d="M 3122 3366 
L 3122 2828 
Q 2878 2963 2633 3030 
Q 2388 3097 2138 3097 
Q 1578 3097 1268 2742 
Q 959 2388 959 1747 
Q 959 1106 1268 751 
Q 1578 397 2138 397 
Q 2388 397 2633 464 
Q 2878 531 3122 666 
L 3122 134 
Q 2881 22 2623 -34 
Q 2366 -91 2075 -91 
Q 1284 -91 818 406 
Q 353 903 353 1747 
Q 353 2603 823 3093 
Q 1294 3584 2113 3584 
Q 2378 3584 2631 3529 
Q 2884 3475 3122 3366 
z
" transform="scale(0.015625)"/>
       <path id="DejaVuSans-29" d="M 513 4856 
L 1013 4856 
Q 1481 4119 1714 3412 
Q 1947 2706 1947 2009 
Q 1947 1309 1714 600 
Q 1481 -109 1013 -844 
L 513 -844 
Q 928 -128 1133 580 
Q 1338 1288 1338 2009 
Q 1338 2731 1133 3434 
Q 928 4138 513 4856 
z
" transform="scale(0.015625)"/>
      </defs>
      <use xlink:href="#DejaVuSans-412"/>
      <use xlink:href="#DejaVuSans-440" x="68.603516"/>
      <use xlink:href="#DejaVuSans-435" x="132.080078"/>
      <use xlink:href="#DejaVuSans-43c" x="193.603516"/>
      <use xlink:href="#DejaVuSans-44f" x="269.042969"/>
      <use xlink:href="#DejaVuSans-20" x="329.199219"/>
      <use xlink:href="#DejaVuSans-438" x="360.986328"/>
      <use xlink:href="#DejaVuSans-437" x="425.976562"/>
      <use xlink:href="#DejaVuSans-43c" x="479.150391"/>
      <use xlink:href="#DejaVuSans-435" x="554.589844"/>
      <use xlink:href="#DejaVuSans-440" x="616.113281"/>
      <use xlink:href="#DejaVuSans-435" x="679.589844"/>
      <use xlink:href="#DejaVuSans-43d" x="741.113281"/>
      <use xlink:href="#DejaVuSans-438" x="806.494141"/>
      <use xlink:href="#DejaVuSans-44f" x="871.484375"/>
      <use xlink:href="#DejaVuSans-20" x="931.640625"/>
      <use xlink:href="#DejaVuSans-28" x="963.427734"/>
      <use xlink:href="#DejaVuSans-441" x="1002.441406"/>
      <use xlink:href="#DejaVuSans-29" x="1057.421875"/>
     </g>
    </g>
   </g>
   <g id="matplotlib.axis_2">
    <g id="ytick_1">
     <g id="line2d_87">
      <path d="M 114.528 441.125991 
L 1060.992 441.125991 
" clip-path="url(#p6ae5303fbb)" style="fill: none; stroke-dasharray: 5.12,1.28,0.8,1.28; stroke-dashoffset: 0; stroke: #b0b0b0; stroke-width: 0.8"/>
     </g>
     <g id="line2d_88">
      <defs>
       <path id="mba376feef8" d="M 0 0 
L -3.5 0 
" style="stroke: #000000; stroke-width: 3"/>
      </defs>
      <g>
       <use xlink:href="#mba376feef8" x="114.528" y="441.125991" style="stroke: #000000; stroke-width: 3"/>
      </g>
     </g>
     <g id="text_11">
      <!-- 20 -->
      <g transform="translate(94.803 444.92521)scale(0.1 -0.1)">
       <use xlink:href="#DejaVuSans-32"/>
       <use xlink:href="#DejaVuSans-30" x="63.623047"/>
      </g>
     </g>
    </g>
    <g id="ytick_2">
     <g id="line2d_89">
      <path d="M 114.528 365.672367 
L 1060.992 365.672367 
" clip-path="url(#p6ae5303fbb)" style="fill: none; stroke-dasharray: 5.12,1.28,0.8,1.28; stroke-dashoffset: 0; stroke: #b0b0b0; stroke-width: 0.8"/>
     </g>
     <g id="line2d_90">
      <g>
       <use xlink:href="#mba376feef8" x="114.528" y="365.672367" style="stroke: #000000; stroke-width: 3"/>
      </g>
     </g>
     <g id="text_12">
      <!-- 40 -->
      <g transform="translate(94.803 369.471586)scale(0.1 -0.1)">
       <defs>
        <path id="DejaVuSans-34" d="M 2419 4116 
L 825 1625 
L 2419 1625 
L 2419 4116 
z
M 2253 4666 
L 3047 4666 
L 3047 1625 
L 3713 1625 
L 3713 1100 
L 3047 1100 
L 3047 0 
L 2419 0 
L 2419 1100 
L 313 1100 
L 313 1709 
L 2253 4666 
z
" transform="scale(0.015625)"/>
       </defs>
       <use xlink:href="#DejaVuSans-34"/>
       <use xlink:href="#DejaVuSans-30" x="63.623047"/>
      </g>
     </g>
    </g>
    <g id="ytick_3">
     <g id="line2d_91">
      <path d="M 114.528 290.218743 
L 1060.992 290.218743 
" clip-path="url(#p6ae5303fbb)" style="fill: none; stroke-dasharray: 5.12,1.28,0.8,1.28; stroke-dashoffset: 0; stroke: #b0b0b0; stroke-width: 0.8"/>
     </g>
     <g id="line2d_92">
      <g>
       <use xlink:href="#mba376feef8" x="114.528" y="290.218743" style="stroke: #000000; stroke-width: 3"/>
      </g>
     </g>
     <g id="text_13">
      <!-- 60 -->
      <g transform="translate(94.803 294.017962)scale(0.1 -0.1)">
       <defs>
        <path id="DejaVuSans-36" d="M 2113 2584 
Q 1688 2584 1439 2293 
Q 1191 2003 1191 1497 
Q 1191 994 1439 701 
Q 1688 409 2113 409 
Q 2538 409 2786 701 
Q 3034 994 3034 1497 
Q 3034 2003 2786 2293 
Q 2538 2584 2113 2584 
z
M 3366 4563 
L 3366 3988 
Q 3128 4100 2886 4159 
Q 2644 4219 2406 4219 
Q 1781 4219 1451 3797 
Q 1122 3375 1075 2522 
Q 1259 2794 1537 2939 
Q 1816 3084 2150 3084 
Q 2853 3084 3261 2657 
Q 3669 2231 3669 1497 
Q 3669 778 3244 343 
Q 2819 -91 2113 -91 
Q 1303 -91 875 529 
Q 447 1150 447 2328 
Q 447 3434 972 4092 
Q 1497 4750 2381 4750 
Q 2619 4750 2861 4703 
Q 3103 4656 3366 4563 
z
" transform="scale(0.015625)"/>
       </defs>
       <use xlink:href="#DejaVuSans-36"/>
       <use xlink:href="#DejaVuSans-30" x="63.623047"/>
      </g>
     </g>
    </g>
    <g id="ytick_4">
     <g id="line2d_93">
      <path d="M 114.528 214.765119 
L 1060.992 214.765119 
" clip-path="url(#p6ae5303fbb)" style="fill: none; stroke-dasharray: 5.12,1.28,0.8,1.28; stroke-dashoffset: 0; stroke: #b0b0b0; stroke-width: 0.8"/>
     </g>
     <g id="line2d_94">
      <g>
       <use xlink:href="#mba376feef8" x="114.528" y="214.765119" style="stroke: #000000; stroke-width: 3"/>
      </g>
     </g>
     <g id="text_14">
      <!-- 80 -->
      <g transform="translate(94.803 218.564337)scale(0.1 -0.1)">
       <defs>
        <path id="DejaVuSans-38" d="M 2034 2216 
Q 1584 2216 1326 1975 
Q 1069 1734 1069 1313 
Q 1069 891 1326 650 
Q 1584 409 2034 409 
Q 2484 409 2743 651 
Q 3003 894 3003 1313 
Q 3003 1734 2745 1975 
Q 2488 2216 2034 2216 
z
M 1403 2484 
Q 997 2584 770 2862 
Q 544 3141 544 3541 
Q 544 4100 942 4425 
Q 1341 4750 2034 4750 
Q 2731 4750 3128 4425 
Q 3525 4100 3525 3541 
Q 3525 3141 3298 2862 
Q 3072 2584 2669 2484 
Q 3125 2378 3379 2068 
Q 3634 1759 3634 1313 
Q 3634 634 3220 271 
Q 2806 -91 2034 -91 
Q 1263 -91 848 271 
Q 434 634 434 1313 
Q 434 1759 690 2068 
Q 947 2378 1403 2484 
z
M 1172 3481 
Q 1172 3119 1398 2916 
Q 1625 2713 2034 2713 
Q 2441 2713 2670 2916 
Q 2900 3119 2900 3481 
Q 2900 3844 2670 4047 
Q 2441 4250 2034 4250 
Q 1625 4250 1398 4047 
Q 1172 3844 1172 3481 
z
" transform="scale(0.015625)"/>
       </defs>
       <use xlink:href="#DejaVuSans-38"/>
       <use xlink:href="#DejaVuSans-30" x="63.623047"/>
      </g>
     </g>
    </g>
    <g id="ytick_5">
     <g id="line2d_95">
      <path d="M 114.528 139.311494 
L 1060.992 139.311494 
" clip-path="url(#p6ae5303fbb)" style="fill: none; stroke-dasharray: 5.12,1.28,0.8,1.28; stroke-dashoffset: 0; stroke: #b0b0b0; stroke-width: 0.8"/>
     </g>
     <g id="line2d_96">
      <g>
       <use xlink:href="#mba376feef8" x="114.528" y="139.311494" style="stroke: #000000; stroke-width: 3"/>
      </g>
     </g>
     <g id="text_15">
      <!-- 100 -->
      <g transform="translate(88.4405 143.110713)scale(0.1 -0.1)">
       <use xlink:href="#DejaVuSans-31"/>
       <use xlink:href="#DejaVuSans-30" x="63.623047"/>
       <use xlink:href="#DejaVuSans-30" x="127.246094"/>
      </g>
     </g>
    </g>
    <g id="ytick_6">
     <g id="line2d_97">
      <path d="M 114.528 63.85787 
L 1060.992 63.85787 
" clip-path="url(#p6ae5303fbb)" style="fill: none; stroke-dasharray: 5.12,1.28,0.8,1.28; stroke-dashoffset: 0; stroke: #b0b0b0; stroke-width: 0.8"/>
     </g>
     <g id="line2d_98">
      <g>
       <use xlink:href="#mba376feef8" x="114.528" y="63.85787" style="stroke: #000000; stroke-width: 3"/>
      </g>
     </g>
     <g id="text_16">
      <!-- 120 -->
      <g transform="translate(88.4405 67.657089)scale(0.1 -0.1)">
       <use xlink:href="#DejaVuSans-31"/>
       <use xlink:href="#DejaVuSans-32" x="63.623047"/>
       <use xlink:href="#DejaVuSans-30" x="127.246094"/>
      </g>
     </g>
    </g>
    <g id="ytick_7">
     <g id="line2d_99">
      <path d="M 114.528 478.852803 
L 1060.992 478.852803 
" clip-path="url(#p6ae5303fbb)" style="fill: none; stroke-dasharray: 0.8,1.32; stroke-dashoffset: 0; stroke: #b0b0b0; stroke-width: 0.8"/>
     </g>
     <g id="line2d_100">
      <defs>
       <path id="mefb5bd950e" d="M 0 0 
L -2 0 
" style="stroke: #000000; stroke-width: 0.6"/>
      </defs>
      <g>
       <use xlink:href="#mefb5bd950e" x="114.528" y="478.852803" style="stroke: #000000; stroke-width: 0.6"/>
      </g>
     </g>
    </g>
    <g id="ytick_8">
     <g id="line2d_101">
      <path d="M 114.528 459.989397 
L 1060.992 459.989397 
" clip-path="url(#p6ae5303fbb)" style="fill: none; stroke-dasharray: 0.8,1.32; stroke-dashoffset: 0; stroke: #b0b0b0; stroke-width: 0.8"/>
     </g>
     <g id="line2d_102">
      <g>
       <use xlink:href="#mefb5bd950e" x="114.528" y="459.989397" style="stroke: #000000; stroke-width: 0.6"/>
      </g>
     </g>
    </g>
    <g id="ytick_9">
     <g id="line2d_103">
      <path d="M 114.528 422.262585 
L 1060.992 422.262585 
" clip-path="url(#p6ae5303fbb)" style="fill: none; stroke-dasharray: 0.8,1.32; stroke-dashoffset: 0; stroke: #b0b0b0; stroke-width: 0.8"/>
     </g>
     <g id="line2d_104">
      <g>
       <use xlink:href="#mefb5bd950e" x="114.528" y="422.262585" style="stroke: #000000; stroke-width: 0.6"/>
      </g>
     </g>
    </g>
    <g id="ytick_10">
     <g id="line2d_105">
      <path d="M 114.528 403.399179 
L 1060.992 403.399179 
" clip-path="url(#p6ae5303fbb)" style="fill: none; stroke-dasharray: 0.8,1.32; stroke-dashoffset: 0; stroke: #b0b0b0; stroke-width: 0.8"/>
     </g>
     <g id="line2d_106">
      <g>
       <use xlink:href="#mefb5bd950e" x="114.528" y="403.399179" style="stroke: #000000; stroke-width: 0.6"/>
      </g>
     </g>
    </g>
    <g id="ytick_11">
     <g id="line2d_107">
      <path d="M 114.528 384.535773 
L 1060.992 384.535773 
" clip-path="url(#p6ae5303fbb)" style="fill: none; stroke-dasharray: 0.8,1.32; stroke-dashoffset: 0; stroke: #b0b0b0; stroke-width: 0.8"/>
     </g>
     <g id="line2d_108">
      <g>
       <use xlink:href="#mefb5bd950e" x="114.528" y="384.535773" style="stroke: #000000; stroke-width: 0.6"/>
      </g>
     </g>
    </g>
    <g id="ytick_12">
     <g id="line2d_109">
      <path d="M 114.528 346.808961 
L 1060.992 346.808961 
" clip-path="url(#p6ae5303fbb)" style="fill: none; stroke-dasharray: 0.8,1.32; stroke-dashoffset: 0; stroke: #b0b0b0; stroke-width: 0.8"/>
     </g>
     <g id="line2d_110">
      <g>
       <use xlink:href="#mefb5bd950e" x="114.528" y="346.808961" style="stroke: #000000; stroke-width: 0.6"/>
      </g>
     </g>
    </g>
    <g id="ytick_13">
     <g id="line2d_111">
      <path d="M 114.528 327.945555 
L 1060.992 327.945555 
" clip-path="url(#p6ae5303fbb)" style="fill: none; stroke-dasharray: 0.8,1.32; stroke-dashoffset: 0; stroke: #b0b0b0; stroke-width: 0.8"/>
     </g>
     <g id="line2d_112">
      <g>
       <use xlink:href="#mefb5bd950e" x="114.528" y="327.945555" style="stroke: #000000; stroke-width: 0.6"/>
      </g>
     </g>
    </g>
    <g id="ytick_14">
     <g id="line2d_113">
      <path d="M 114.528 309.082149 
L 1060.992 309.082149 
" clip-path="url(#p6ae5303fbb)" style="fill: none; stroke-dasharray: 0.8,1.32; stroke-dashoffset: 0; stroke: #b0b0b0; stroke-width: 0.8"/>
     </g>
     <g id="line2d_114">
      <g>
       <use xlink:href="#mefb5bd950e" x="114.528" y="309.082149" style="stroke: #000000; stroke-width: 0.6"/>
      </g>
     </g>
    </g>
    <g id="ytick_15">
     <g id="line2d_115">
      <path d="M 114.528 271.355337 
L 1060.992 271.355337 
" clip-path="url(#p6ae5303fbb)" style="fill: none; stroke-dasharray: 0.8,1.32; stroke-dashoffset: 0; stroke: #b0b0b0; stroke-width: 0.8"/>
     </g>
     <g id="line2d_116">
      <g>
       <use xlink:href="#mefb5bd950e" x="114.528" y="271.355337" style="stroke: #000000; stroke-width: 0.6"/>
      </g>
     </g>
    </g>
    <g id="ytick_16">
     <g id="line2d_117">
      <path d="M 114.528 252.491931 
L 1060.992 252.491931 
" clip-path="url(#p6ae5303fbb)" style="fill: none; stroke-dasharray: 0.8,1.32; stroke-dashoffset: 0; stroke: #b0b0b0; stroke-width: 0.8"/>
     </g>
     <g id="line2d_118">
      <g>
       <use xlink:href="#mefb5bd950e" x="114.528" y="252.491931" style="stroke: #000000; stroke-width: 0.6"/>
      </g>
     </g>
    </g>
    <g id="ytick_17">
     <g id="line2d_119">
      <path d="M 114.528 233.628525 
L 1060.992 233.628525 
" clip-path="url(#p6ae5303fbb)" style="fill: none; stroke-dasharray: 0.8,1.32; stroke-dashoffset: 0; stroke: #b0b0b0; stroke-width: 0.8"/>
     </g>
     <g id="line2d_120">
      <g>
       <use xlink:href="#mefb5bd950e" x="114.528" y="233.628525" style="stroke: #000000; stroke-width: 0.6"/>
      </g>
     </g>
    </g>
    <g id="ytick_18">
     <g id="line2d_121">
      <path d="M 114.528 195.901713 
L 1060.992 195.901713 
" clip-path="url(#p6ae5303fbb)" style="fill: none; stroke-dasharray: 0.8,1.32; stroke-dashoffset: 0; stroke: #b0b0b0; stroke-width: 0.8"/>
     </g>
     <g id="line2d_122">
      <g>
       <use xlink:href="#mefb5bd950e" x="114.528" y="195.901713" style="stroke: #000000; stroke-width: 0.6"/>
      </g>
     </g>
    </g>
    <g id="ytick_19">
     <g id="line2d_123">
      <path d="M 114.528 177.038307 
L 1060.992 177.038307 
" clip-path="url(#p6ae5303fbb)" style="fill: none; stroke-dasharray: 0.8,1.32; stroke-dashoffset: 0; stroke: #b0b0b0; stroke-width: 0.8"/>
     </g>
     <g id="line2d_124">
      <g>
       <use xlink:href="#mefb5bd950e" x="114.528" y="177.038307" style="stroke: #000000; stroke-width: 0.6"/>
      </g>
     </g>
    </g>
    <g id="ytick_20">
     <g id="line2d_125">
      <path d="M 114.528 158.174901 
L 1060.992 158.174901 
" clip-path="url(#p6ae5303fbb)" style="fill: none; stroke-dasharray: 0.8,1.32; stroke-dashoffset: 0; stroke: #b0b0b0; stroke-width: 0.8"/>
     </g>
     <g id="line2d_126">
      <g>
       <use xlink:href="#mefb5bd950e" x="114.528" y="158.174901" style="stroke: #000000; stroke-width: 0.6"/>
      </g>
     </g>
    </g>
    <g id="ytick_21">
     <g id="line2d_127">
      <path d="M 114.528 120.448088 
L 1060.992 120.448088 
" clip-path="url(#p6ae5303fbb)" style="fill: none; stroke-dasharray: 0.8,1.32; stroke-dashoffset: 0; stroke: #b0b0b0; stroke-width: 0.8"/>
     </g>
     <g id="line2d_128">
      <g>
       <use xlink:href="#mefb5bd950e" x="114.528" y="120.448088" style="stroke: #000000; stroke-width: 0.6"/>
      </g>
     </g>
    </g>
    <g id="ytick_22">
     <g id="line2d_129">
      <path d="M 114.528 101.584682 
L 1060.992 101.584682 
" clip-path="url(#p6ae5303fbb)" style="fill: none; stroke-dasharray: 0.8,1.32; stroke-dashoffset: 0; stroke: #b0b0b0; stroke-width: 0.8"/>
     </g>
     <g id="line2d_130">
      <g>
       <use xlink:href="#mefb5bd950e" x="114.528" y="101.584682" style="stroke: #000000; stroke-width: 0.6"/>
      </g>
     </g>
    </g>
    <g id="ytick_23">
     <g id="line2d_131">
      <path d="M 114.528 82.721276 
L 1060.992 82.721276 
" clip-path="url(#p6ae5303fbb)" style="fill: none; stroke-dasharray: 0.8,1.32; stroke-dashoffset: 0; stroke: #b0b0b0; stroke-width: 0.8"/>
     </g>
     <g id="line2d_132">
      <g>
       <use xlink:href="#mefb5bd950e" x="114.528" y="82.721276" style="stroke: #000000; stroke-width: 0.6"/>
      </g>
     </g>
    </g>
    <g id="ytick_24">
     <g id="line2d_133">
      <path d="M 114.528 44.994464 
L 1060.992 44.994464 
" clip-path="url(#p6ae5303fbb)" style="fill: none; stroke-dasharray: 0.8,1.32; stroke-dashoffset: 0; stroke: #b0b0b0; stroke-width: 0.8"/>
     </g>
     <g id="line2d_134">
      <g>
       <use xlink:href="#mefb5bd950e" x="114.528" y="44.994464" style="stroke: #000000; stroke-width: 0.6"/>
      </g>
     </g>
    </g>
    <g id="text_17">
     <!-- Высота уровня жидкости (мм) -->
     <g transform="translate(82.360813 342.615732)rotate(-90)scale(0.1 -0.1)">
      <defs>
       <path id="DejaVuSans-44b" d="M 3907 3500 
L 4482 3500 
L 4482 0 
L 3907 0 
L 3907 3500 
z
M 4195 3584 
L 4195 3584 
z
M 2781 1038 
Q 2781 1319 2576 1466 
Q 2372 1613 1978 1613 
L 1159 1613 
L 1159 459 
L 1978 459 
Q 2372 459 2576 607 
Q 2781 756 2781 1038 
z
M 581 3500 
L 1159 3500 
L 1159 2072 
L 2003 2072 
Q 2672 2072 3033 1817 
Q 3394 1563 3394 1038 
Q 3394 513 3033 256 
Q 2672 0 2003 0 
L 581 0 
L 581 3500 
z
" transform="scale(0.015625)"/>
       <path id="DejaVuSans-43e" d="M 1959 3097 
Q 1497 3097 1228 2736 
Q 959 2375 959 1747 
Q 959 1119 1226 758 
Q 1494 397 1959 397 
Q 2419 397 2687 759 
Q 2956 1122 2956 1747 
Q 2956 2369 2687 2733 
Q 2419 3097 1959 3097 
z
M 1959 3584 
Q 2709 3584 3137 3096 
Q 3566 2609 3566 1747 
Q 3566 888 3137 398 
Q 2709 -91 1959 -91 
Q 1206 -91 779 398 
Q 353 888 353 1747 
Q 353 2609 779 3096 
Q 1206 3584 1959 3584 
z
" transform="scale(0.015625)"/>
       <path id="DejaVuSans-442" d="M 188 3500 
L 3541 3500 
L 3541 3041 
L 2147 3041 
L 2147 0 
L 1581 0 
L 1581 3041 
L 188 3041 
L 188 3500 
z
" transform="scale(0.015625)"/>
       <path id="DejaVuSans-430" d="M 2194 1759 
Q 1497 1759 1228 1600 
Q 959 1441 959 1056 
Q 959 750 1161 570 
Q 1363 391 1709 391 
Q 2188 391 2477 730 
Q 2766 1069 2766 1631 
L 2766 1759 
L 2194 1759 
z
M 3341 1997 
L 3341 0 
L 2766 0 
L 2766 531 
Q 2569 213 2275 61 
Q 1981 -91 1556 -91 
Q 1019 -91 701 211 
Q 384 513 384 1019 
Q 384 1609 779 1909 
Q 1175 2209 1959 2209 
L 2766 2209 
L 2766 2266 
Q 2766 2663 2505 2880 
Q 2244 3097 1772 3097 
Q 1472 3097 1187 3025 
Q 903 2953 641 2809 
L 641 3341 
Q 956 3463 1253 3523 
Q 1550 3584 1831 3584 
Q 2591 3584 2966 3190 
Q 3341 2797 3341 1997 
z
" transform="scale(0.015625)"/>
       <path id="DejaVuSans-443" d="M 2059 -325 
Q 1816 -950 1584 -1140 
Q 1353 -1331 966 -1331 
L 506 -1331 
L 506 -850 
L 844 -850 
Q 1081 -850 1212 -737 
Q 1344 -625 1503 -206 
L 1606 56 
L 191 3500 
L 800 3500 
L 1894 763 
L 2988 3500 
L 3597 3500 
L 2059 -325 
z
" transform="scale(0.015625)"/>
       <path id="DejaVuSans-432" d="M 1156 1613 
L 1156 459 
L 1975 459 
Q 2369 459 2575 607 
Q 2781 756 2781 1038 
Q 2781 1319 2575 1466 
Q 2369 1613 1975 1613 
L 1156 1613 
z
M 1156 3041 
L 1156 2072 
L 1913 2072 
Q 2238 2072 2444 2201 
Q 2650 2331 2650 2563 
Q 2650 2794 2444 2917 
Q 2238 3041 1913 3041 
L 1156 3041 
z
M 581 3500 
L 1950 3500 
Q 2566 3500 2897 3275 
Q 3228 3050 3228 2634 
Q 3228 2313 3059 2123 
Q 2891 1934 2559 1888 
Q 2956 1813 3175 1575 
Q 3394 1338 3394 981 
Q 3394 513 3033 256 
Q 2672 0 2003 0 
L 581 0 
L 581 3500 
z
" transform="scale(0.015625)"/>
       <path id="DejaVuSans-436" d="M 2597 3500 
L 3169 3500 
L 3169 1856 
L 4697 3500 
L 5366 3500 
L 4109 2153 
L 5547 0 
L 4931 0 
L 3753 1769 
L 3169 1141 
L 3169 0 
L 2597 0 
L 2597 1141 
L 2013 1769 
L 834 0 
L 219 0 
L 1656 2153 
L 400 3500 
L 1069 3500 
L 2597 1856 
L 2597 3500 
z
" transform="scale(0.015625)"/>
       <path id="DejaVuSans-434" d="M 1384 459 
L 3053 459 
L 3053 3041 
L 1844 3041 
L 1844 2603 
Q 1844 1316 1475 628 
L 1384 459 
z
M 550 459 
Q 834 584 959 850 
Q 1266 1509 1266 2838 
L 1266 3500 
L 3631 3500 
L 3631 459 
L 4091 459 
L 4091 -884 
L 3631 -884 
L 3631 0 
L 794 0 
L 794 -884 
L 334 -884 
L 334 459 
L 550 459 
z
" transform="scale(0.015625)"/>
       <path id="DejaVuSans-43a" d="M 581 3500 
L 1153 3500 
L 1153 1856 
L 2775 3500 
L 3481 3500 
L 2144 2147 
L 3653 0 
L 3009 0 
L 1769 1766 
L 1153 1141 
L 1153 0 
L 581 0 
L 581 3500 
z
" transform="scale(0.015625)"/>
      </defs>
      <use xlink:href="#DejaVuSans-412"/>
      <use xlink:href="#DejaVuSans-44b" x="68.603516"/>
      <use xlink:href="#DejaVuSans-441" x="147.558594"/>
      <use xlink:href="#DejaVuSans-43e" x="202.539062"/>
      <use xlink:href="#DejaVuSans-442" x="263.720703"/>
      <use xlink:href="#DejaVuSans-430" x="321.972656"/>
      <use xlink:href="#DejaVuSans-20" x="383.251953"/>
      <use xlink:href="#DejaVuSans-443" x="415.039062"/>
      <use xlink:href="#DejaVuSans-440" x="474.21875"/>
      <use xlink:href="#DejaVuSans-43e" x="537.695312"/>
      <use xlink:href="#DejaVuSans-432" x="598.876953"/>
      <use xlink:href="#DejaVuSans-43d" x="657.8125"/>
      <use xlink:href="#DejaVuSans-44f" x="723.193359"/>
      <use xlink:href="#DejaVuSans-20" x="783.349609"/>
      <use xlink:href="#DejaVuSans-436" x="815.136719"/>
      <use xlink:href="#DejaVuSans-438" x="905.224609"/>
      <use xlink:href="#DejaVuSans-434" x="970.214844"/>
      <use xlink:href="#DejaVuSans-43a" x="1039.355469"/>
      <use xlink:href="#DejaVuSans-43e" x="1099.755859"/>
      <use xlink:href="#DejaVuSans-441" x="1160.9375"/>
      <use xlink:href="#DejaVuSans-442" x="1215.917969"/>
      <use xlink:href="#DejaVuSans-438" x="1274.169922"/>
      <use xlink:href="#DejaVuSans-20" x="1339.160156"/>
      <use xlink:href="#DejaVuSans-28" x="1370.947266"/>
      <use xlink:href="#DejaVuSans-43c" x="1409.960938"/>
      <use xlink:href="#DejaVuSans-43c" x="1485.400391"/>
      <use xlink:href="#DejaVuSans-29" x="1560.839844"/>
     </g>
    </g>
   </g>
   <g id="line2d_135">
    <path d="M 157.549091 427.63002 
L 164.856283 427.63002 
L 168.509878 430.82404 
L 172.163474 427.63002 
L 175.81707 430.82404 
L 179.470666 427.63002 
L 183.124262 430.82404 
L 197.738645 430.82404 
L 201.392241 427.63002 
L 205.045837 430.82404 
L 208.699433 427.63002 
L 212.353028 430.82404 
L 216.006624 430.82404 
L 219.66022 433.80493 
L 223.313816 430.82404 
L 226.967412 433.80493 
L 234.274603 433.80493 
L 237.928199 430.82404 
L 241.581795 433.80493 
L 248.888987 433.80493 
L 252.542583 430.82404 
L 259.849774 430.82404 
L 263.50337 433.80493 
L 267.156966 430.82404 
L 270.810562 433.80493 
L 274.464157 430.82404 
L 281.771349 430.82404 
L 285.424945 433.80493 
L 289.078541 430.82404 
L 292.732137 430.82404 
L 296.385732 433.80493 
L 300.039328 430.82404 
L 303.692924 427.63002 
L 307.34652 433.80493 
L 311.000116 430.82404 
L 314.653712 430.82404 
L 318.307307 433.80493 
L 321.960903 430.82404 
L 325.614499 433.80493 
L 329.268095 430.82404 
L 332.921691 427.63002 
L 336.575287 433.80493 
L 340.228882 430.82404 
L 343.882478 433.80493 
L 347.536074 430.82404 
L 351.18967 433.80493 
L 354.843266 430.82404 
L 362.150457 430.82404 
L 365.804053 433.80493 
L 373.111245 433.80493 
L 376.764841 430.82404 
L 380.418437 433.80493 
L 384.072032 430.82404 
L 387.725628 433.80493 
L 398.686416 433.80493 
L 402.340012 430.82404 
L 405.993607 433.80493 
L 409.647203 433.80493 
L 413.300799 430.82404 
L 416.954395 433.80493 
L 420.607991 433.80493 
L 424.261587 430.82404 
L 427.915182 433.80493 
L 453.490353 433.80493 
L 457.143949 430.82404 
L 460.797545 433.80493 
L 464.451141 436.577077 
L 468.104737 433.80493 
L 471.758332 433.80493 
L 475.411928 436.577077 
L 479.065524 436.577077 
L 482.71912 439.148786 
L 486.372716 439.148786 
L 490.026312 441.530912 
L 493.679907 441.530912 
L 497.333503 443.735757 
L 511.947887 443.735757 
L 515.601482 445.776235 
L 530.215866 445.776235 
L 533.869461 447.665267 
L 541.176653 447.665267 
L 544.830249 449.415383 
L 552.137441 449.415383 
L 555.791036 451.03846 
L 563.098228 451.03846 
L 566.751824 452.545588 
L 570.40542 451.03846 
L 574.059016 451.03846 
L 577.712611 452.545588 
L 581.366207 451.03846 
L 588.673399 453.946998 
L 592.326995 452.545588 
L 595.980591 453.946998 
L 599.634186 452.545588 
L 610.594974 452.545588 
L 614.24857 453.946998 
L 632.516549 453.946998 
L 636.170145 452.545588 
L 643.477336 455.252058 
L 647.130932 453.946998 
L 650.784528 453.946998 
L 654.438124 452.545588 
L 661.745316 455.252058 
L 665.398911 453.946998 
L 669.052507 455.252058 
L 676.359699 452.545588 
L 680.013295 455.252058 
L 683.666891 453.946998 
L 687.320486 455.252058 
L 690.974082 455.252058 
L 694.627678 453.946998 
L 698.281274 453.946998 
L 705.588466 456.469292 
L 709.242061 453.946998 
L 712.895657 455.252058 
L 720.202849 455.252058 
L 723.856445 453.946998 
L 727.510041 453.946998 
L 731.163636 455.252058 
L 734.817232 455.252058 
L 738.470828 456.469292 
L 742.124424 455.252058 
L 749.431616 455.252058 
L 753.085211 456.469292 
L 756.738807 453.946998 
L 760.392403 455.252058 
L 782.313978 455.252058 
L 785.967574 456.469292 
L 789.62117 455.252058 
L 793.274765 456.469292 
L 796.928361 455.252058 
L 800.581957 456.469292 
L 804.235553 455.252058 
L 815.19634 455.252058 
L 818.849936 456.469292 
L 822.503532 455.252058 
L 826.157128 456.469292 
L 848.078703 456.469292 
L 851.732299 455.252058 
L 855.385895 456.469292 
L 859.03949 455.252058 
L 862.693086 456.469292 
L 895.575449 456.469292 
L 899.229045 457.606426 
L 902.88264 456.469292 
L 913.843428 456.469292 
L 917.497024 457.606426 
L 921.15062 457.606426 
L 924.804215 456.469292 
L 939.418599 456.469292 
L 943.072195 457.606426 
L 946.72579 457.606426 
L 950.379386 456.469292 
L 954.032982 456.469292 
L 957.686578 457.606426 
L 961.340174 456.469292 
L 972.300961 456.469292 
L 975.954557 457.606426 
L 1001.529728 457.606426 
L 1005.183324 456.469292 
L 1008.83692 457.606426 
L 1012.490515 456.469292 
L 1016.144111 457.606426 
L 1016.144111 457.606426 
" clip-path="url(#p6ae5303fbb)" style="fill: none; stroke: #0000ff; stroke-width: 1.5; stroke-linecap: square"/>
   </g>
   <g id="line2d_136">
    <path d="M 157.549091 345.966499 
L 161.202687 348.036183 
L 164.856283 345.966499 
L 168.509878 348.036183 
L 201.392241 348.036183 
L 205.045837 345.966499 
L 208.699433 348.036183 
L 230.621008 348.036183 
L 234.274603 345.966499 
L 237.928199 348.036183 
L 241.581795 348.036183 
L 245.235391 345.966499 
L 252.542583 345.966499 
L 256.196178 348.036183 
L 267.156966 348.036183 
L 270.810562 350.13961 
L 274.464157 350.13961 
L 278.117753 348.036183 
L 289.078541 348.036183 
L 292.732137 345.966499 
L 296.385732 348.036183 
L 314.653712 348.036183 
L 318.307307 345.966499 
L 321.960903 348.036183 
L 340.228882 348.036183 
L 343.882478 350.13961 
L 351.18967 350.13961 
L 354.843266 352.295372 
L 362.150457 352.295372 
L 365.804053 350.13961 
L 369.457649 352.295372 
L 373.111245 352.295372 
L 376.764841 354.521534 
L 380.418437 354.521534 
L 384.072032 356.835827 
L 387.725628 354.521534 
L 391.379224 356.835827 
L 395.03282 356.835827 
L 398.686416 359.255709 
L 402.340012 359.255709 
L 405.993607 361.79827 
L 409.647203 364.479949 
L 413.300799 364.479949 
L 416.954395 367.316039 
L 427.915182 367.316039 
L 431.568778 370.319926 
L 435.222374 370.319926 
L 438.87597 373.502051 
L 442.529566 376.868598 
L 446.183162 376.868598 
L 449.836757 380.419988 
L 457.143949 380.419988 
L 460.797545 384.149317 
L 464.451141 380.419988 
L 468.104737 384.149317 
L 471.758332 388.041025 
L 475.411928 384.149317 
L 479.065524 388.041025 
L 482.71912 388.041025 
L 490.026312 396.202331 
L 500.987099 396.202331 
L 504.640695 400.395435 
L 508.294291 400.395435 
L 511.947887 396.202331 
L 515.601482 404.601788 
L 519.255078 400.395435 
L 526.56227 408.771771 
L 537.523057 408.771771 
L 541.176653 412.857559 
L 555.791036 412.857559 
L 559.444632 416.816561 
L 563.098228 412.857559 
L 566.751824 416.816561 
L 570.40542 416.816561 
L 574.059016 420.613941 
L 577.712611 416.816561 
L 581.366207 416.816561 
L 585.019803 420.613941 
L 588.673399 420.613941 
L 592.326995 424.223943 
L 603.287782 424.223943 
L 606.941378 427.63002 
L 610.594974 424.223943 
L 614.24857 427.63002 
L 617.902166 424.223943 
L 621.555761 427.63002 
L 643.477336 427.63002 
L 647.130932 430.82404 
L 650.784528 430.82404 
L 654.438124 427.63002 
L 658.09172 430.82404 
L 669.052507 430.82404 
L 672.706103 433.80493 
L 676.359699 430.82404 
L 680.013295 430.82404 
L 683.666891 433.80493 
L 687.320486 430.82404 
L 690.974082 433.80493 
L 694.627678 430.82404 
L 698.281274 430.82404 
L 701.93487 433.80493 
L 731.163636 433.80493 
L 734.817232 436.577077 
L 738.470828 433.80493 
L 742.124424 433.80493 
L 745.77802 436.577077 
L 749.431616 433.80493 
L 756.738807 433.80493 
L 760.392403 436.577077 
L 764.045999 439.148786 
L 767.699595 436.577077 
L 771.353191 436.577077 
L 775.006786 433.80493 
L 778.660382 436.577077 
L 782.313978 439.148786 
L 789.62117 439.148786 
L 793.274765 436.577077 
L 796.928361 439.148786 
L 800.581957 436.577077 
L 804.235553 439.148786 
L 822.503532 439.148786 
L 826.157128 436.577077 
L 829.810724 439.148786 
L 840.771511 439.148786 
L 844.425107 436.577077 
L 848.078703 441.530912 
L 851.732299 439.148786 
L 862.693086 439.148786 
L 866.346682 441.530912 
L 870.000278 439.148786 
L 873.653874 441.530912 
L 877.30747 439.148786 
L 880.961065 441.530912 
L 891.921853 441.530912 
L 895.575449 439.148786 
L 899.229045 443.735757 
L 902.88264 441.530912 
L 906.536236 441.530912 
L 910.189832 443.735757 
L 939.418599 443.735757 
L 943.072195 441.530912 
L 946.72579 443.735757 
L 954.032982 443.735757 
L 957.686578 445.776235 
L 961.340174 443.735757 
L 964.99377 445.776235 
L 968.647365 445.776235 
L 972.300961 443.735757 
L 975.954557 445.776235 
L 994.222536 445.776235 
L 997.876132 447.665267 
L 1001.529728 445.776235 
L 1005.183324 447.665267 
L 1008.83692 445.776235 
L 1012.490515 447.665267 
L 1016.144111 447.665267 
L 1016.144111 447.665267 
" clip-path="url(#p6ae5303fbb)" style="fill: none; stroke: #ff0000; stroke-width: 1.5; stroke-linecap: square"/>
   </g>
   <g id="line2d_137">
    <path d="M 157.549091 120.511605 
L 159.379767 120.511605 
L 161.210444 134.621533 
L 175.855856 134.621533 
L 177.686532 153.039494 
L 179.517209 134.621533 
L 181.347885 153.039494 
L 183.178561 134.621533 
L 188.670591 134.621533 
L 190.501267 120.511605 
L 192.331944 153.039494 
L 194.16262 120.511605 
L 195.993297 153.039494 
L 197.823973 120.511605 
L 199.65465 134.621533 
L 201.485326 134.621533 
L 203.316003 153.039494 
L 205.146679 153.039494 
L 206.977356 134.621533 
L 228.945473 134.621533 
L 230.77615 153.039494 
L 234.437503 153.039494 
L 236.268179 134.621533 
L 238.098855 153.039494 
L 239.929532 153.039494 
L 241.760208 176.102241 
L 243.590885 153.039494 
L 245.421561 202.350757 
L 247.252238 202.350757 
L 249.082914 176.102241 
L 250.913591 202.350757 
L 252.744267 202.350757 
L 254.574944 228.343057 
L 256.40562 250.833403 
L 258.236297 228.343057 
L 260.066973 250.833403 
L 261.89765 268.681256 
L 263.728326 268.681256 
L 265.559002 292.899844 
L 269.220355 292.899844 
L 271.051032 301.11798 
L 272.881708 301.11798 
L 274.712385 313.062719 
L 276.543061 317.567904 
L 280.204414 317.567904 
L 282.035091 321.426228 
L 283.865767 321.426228 
L 285.696444 324.798484 
L 287.52712 327.802179 
L 289.357797 327.802179 
L 291.188473 330.525129 
L 293.019149 333.034505 
L 294.849826 333.034505 
L 298.511179 337.612572 
L 300.341855 339.758234 
L 304.003208 339.758234 
L 309.495238 345.966499 
L 311.325914 345.966499 
L 313.156591 348.036183 
L 314.987267 348.036183 
L 316.817944 350.13961 
L 318.64862 350.13961 
L 322.309973 354.521534 
L 324.140649 356.835827 
L 325.971326 356.835827 
L 327.802002 359.255709 
L 329.632679 356.835827 
L 333.294032 361.79827 
L 336.955385 361.79827 
L 340.616738 367.316039 
L 347.939444 367.316039 
L 349.77012 370.319926 
L 351.600796 370.319926 
L 353.431473 373.502051 
L 358.923502 373.502051 
L 360.754179 376.868598 
L 369.907561 376.868598 
L 371.738238 380.419988 
L 375.399591 380.419988 
L 377.230267 384.149317 
L 380.89162 384.149317 
L 382.722296 388.041025 
L 384.552973 388.041025 
L 386.383649 384.149317 
L 388.214326 392.07012 
L 390.045002 388.041025 
L 395.537032 388.041025 
L 397.367708 392.07012 
L 399.198385 392.07012 
L 401.029061 396.202331 
L 410.182443 396.202331 
L 412.01312 400.395435 
L 413.843796 396.202331 
L 417.505149 396.202331 
L 419.335826 400.395435 
L 421.166502 396.202331 
L 422.997179 400.395435 
L 426.658532 400.395435 
L 428.489208 404.601788 
L 430.319885 404.601788 
L 432.150561 400.395435 
L 433.981237 400.395435 
L 437.64259 408.771771 
L 439.473267 408.771771 
L 441.303943 404.601788 
L 446.795973 404.601788 
L 448.626649 408.771771 
L 457.780032 408.771771 
L 459.610708 404.601788 
L 461.441384 408.771771 
L 463.272061 408.771771 
L 465.102737 412.857559 
L 466.933414 412.857559 
L 468.76409 408.771771 
L 470.594767 416.816561 
L 472.425443 412.857559 
L 474.25612 416.816561 
L 476.086796 416.816561 
L 477.917473 412.857559 
L 479.748149 412.857559 
L 481.578826 416.816561 
L 483.409502 412.857559 
L 485.240179 416.816561 
L 487.070855 416.816561 
L 488.901531 420.613941 
L 490.732208 416.816561 
L 492.562884 420.613941 
L 494.393561 416.816561 
L 498.054914 424.223943 
L 499.88559 420.613941 
L 501.716267 420.613941 
L 505.37762 427.63002 
L 507.208296 424.223943 
L 510.869649 424.223943 
L 512.700326 427.63002 
L 514.531002 424.223943 
L 516.361678 427.63002 
L 523.684384 427.63002 
L 525.515061 424.223943 
L 527.345737 427.63002 
L 529.176414 427.63002 
L 531.00709 430.82404 
L 543.821826 430.82404 
L 545.652502 433.80493 
L 549.313855 433.80493 
L 551.144531 430.82404 
L 552.975208 430.82404 
L 554.805884 433.80493 
L 556.636561 433.80493 
L 558.467237 436.577077 
L 562.12859 436.577077 
L 563.959267 433.80493 
L 565.789943 433.80493 
L 567.62062 436.577077 
L 580.435355 436.577077 
L 582.266031 439.148786 
L 593.25009 439.148786 
L 595.080767 441.530912 
L 596.911443 439.148786 
L 598.74212 441.530912 
L 600.572796 439.148786 
L 602.403472 439.148786 
L 604.234149 441.530912 
L 607.895502 441.530912 
L 609.726178 439.148786 
L 611.556855 441.530912 
L 618.879561 441.530912 
L 620.710237 443.735757 
L 622.540914 441.530912 
L 624.37159 443.735757 
L 626.202267 443.735757 
L 628.032943 441.530912 
L 629.863619 443.735757 
L 631.694296 443.735757 
L 633.524972 445.776235 
L 635.355649 441.530912 
L 639.017002 445.776235 
L 640.847678 443.735757 
L 642.678355 443.735757 
L 644.509031 445.776235 
L 646.339708 443.735757 
L 648.170384 445.776235 
L 650.001061 445.776235 
L 651.831737 447.665267 
L 655.49309 443.735757 
L 657.323766 445.776235 
L 660.985119 445.776235 
L 662.815796 447.665267 
L 664.646472 445.776235 
L 666.477149 447.665267 
L 673.799855 447.665267 
L 675.630531 445.776235 
L 677.461208 449.415383 
L 679.291884 449.415383 
L 681.122561 447.665267 
L 690.275943 447.665267 
L 692.106619 449.415383 
L 697.598649 449.415383 
L 699.429325 447.665267 
L 701.260002 451.03846 
L 703.090678 447.665267 
L 706.752031 451.03846 
L 708.582708 447.665267 
L 710.413384 451.03846 
L 712.244061 449.415383 
L 714.074737 449.415383 
L 715.905413 451.03846 
L 717.73609 451.03846 
L 719.566766 449.415383 
L 721.397443 451.03846 
L 725.058796 451.03846 
L 726.889472 449.415383 
L 728.720149 451.03846 
L 734.212178 451.03846 
L 736.042855 452.545588 
L 739.704208 452.545588 
L 741.534884 451.03846 
L 743.36556 452.545588 
L 745.196237 451.03846 
L 747.026913 452.545588 
L 761.672325 452.545588 
L 763.503002 453.946998 
L 765.333678 452.545588 
L 767.164355 452.545588 
L 768.995031 453.946998 
L 783.640443 453.946998 
L 785.471119 452.545588 
L 787.301796 453.946998 
L 796.455178 453.946998 
L 798.285854 452.545588 
L 800.116531 453.946998 
L 805.60856 453.946998 
L 807.439237 455.252058 
L 809.269913 455.252058 
L 811.10059 453.946998 
L 812.931266 455.252058 
L 814.761943 455.252058 
L 816.592619 453.946998 
L 818.423296 453.946998 
L 820.253972 455.252058 
L 827.576678 455.252058 
L 829.407354 453.946998 
L 831.238031 453.946998 
L 833.068707 455.252058 
L 836.73006 455.252058 
L 838.560737 456.469292 
L 845.883443 456.469292 
L 847.714119 455.252058 
L 849.544796 456.469292 
L 856.867501 456.469292 
L 858.698178 457.606426 
L 860.528854 456.469292 
L 869.682237 456.469292 
L 871.512913 455.252058 
L 873.34359 456.469292 
L 877.004943 456.469292 
L 878.835619 455.252058 
L 882.496972 457.606426 
L 884.327648 457.606426 
L 886.158325 456.469292 
L 887.989001 457.606426 
L 889.819678 456.469292 
L 891.650354 457.606426 
L 893.481031 456.469292 
L 895.311707 456.469292 
L 897.142384 457.606426 
L 898.97306 457.606426 
L 900.803737 456.469292 
L 902.634413 457.606426 
L 904.46509 456.469292 
L 906.295766 457.606426 
L 908.126443 456.469292 
L 909.957119 458.670447 
L 911.787795 457.606426 
L 915.449148 457.606426 
L 917.279825 456.469292 
L 920.941178 458.670447 
L 922.771854 457.606426 
L 924.602531 457.606426 
L 926.433207 458.670447 
L 928.263884 457.606426 
L 930.09456 457.606426 
L 931.925237 458.670447 
L 933.755913 458.670447 
L 935.58659 457.606426 
L 937.417266 458.670447 
L 939.247942 457.606426 
L 941.078619 457.606426 
L 942.909295 458.670447 
L 944.739972 457.606426 
L 948.401325 457.606426 
L 950.232001 458.670447 
L 970.369442 458.670447 
L 972.200119 459.667655 
L 974.030795 458.670447 
L 988.676207 458.670447 
L 990.506884 459.667655 
L 992.33756 458.670447 
L 994.168236 459.667655 
L 997.829589 459.667655 
L 999.660266 458.670447 
L 1003.321619 458.670447 
L 1005.152295 459.667655 
L 1006.982972 459.667655 
L 1008.813648 458.670447 
L 1010.644325 459.667655 
L 1017.967031 459.667655 
L 1017.967031 459.667655 
" clip-path="url(#p6ae5303fbb)" style="fill: none; stroke: #008000; stroke-width: 1.5; stroke-linecap: square"/>
   </g>
   <g id="line2d_138">
    <path d="M 157.549091 62.931481 
L 159.375889 63.886289 
L 161.202687 62.931481 
L 163.029485 63.886289 
L 166.68308 63.886289 
L 168.509878 62.931481 
L 170.336676 63.886289 
L 172.163474 62.931481 
L 173.990272 63.886289 
L 175.81707 62.931481 
L 177.643868 62.931481 
L 179.470666 63.886289 
L 186.777858 63.886289 
L 188.604655 64.926874 
L 190.431453 63.886289 
L 199.565443 63.886289 
L 201.392241 64.926874 
L 203.219039 64.926874 
L 205.045837 63.886289 
L 206.872635 64.926874 
L 210.52623 64.926874 
L 212.353028 66.066289 
L 214.179826 64.926874 
L 217.833422 67.320428 
L 219.66022 68.708841 
L 221.487018 68.708841 
L 223.313816 71.991988 
L 225.140614 76.199114 
L 226.967412 81.807159 
L 228.79421 94.919088 
L 230.621008 109.756056 
L 232.447805 101.452753 
L 234.274603 120.511605 
L 236.101401 109.756056 
L 237.928199 109.756056 
L 239.754997 120.511605 
L 243.408593 120.511605 
L 245.235391 134.621533 
L 248.888987 134.621533 
L 250.715785 153.039494 
L 252.542583 153.039494 
L 254.36938 202.350757 
L 256.196178 202.350757 
L 258.022976 228.343057 
L 259.849774 250.833403 
L 263.50337 250.833403 
L 265.330168 282.379262 
L 267.156966 292.899844 
L 268.983764 282.379262 
L 270.810562 292.899844 
L 272.63736 301.11798 
L 274.464157 313.062719 
L 278.117753 313.062719 
L 279.944551 317.567904 
L 281.771349 321.426228 
L 285.424945 321.426228 
L 287.251743 327.802179 
L 289.078541 330.525129 
L 292.732137 330.525129 
L 294.558935 335.382913 
L 296.385732 333.034505 
L 300.039328 337.612572 
L 301.866126 337.612572 
L 303.692924 339.758234 
L 305.519722 337.612572 
L 307.34652 341.849256 
L 309.173318 341.849256 
L 311.000116 343.91111 
L 312.826914 343.91111 
L 314.653712 345.966499 
L 316.48051 343.91111 
L 318.307307 345.966499 
L 320.134105 345.966499 
L 323.787701 350.13961 
L 325.614499 350.13961 
L 327.441297 352.295372 
L 329.268095 350.13961 
L 331.094893 354.521534 
L 334.748489 354.521534 
L 336.575287 356.835827 
L 338.402085 356.835827 
L 340.228882 359.255709 
L 342.05568 359.255709 
L 343.882478 361.79827 
L 345.709276 361.79827 
L 347.536074 364.479949 
L 353.016468 364.479949 
L 354.843266 367.316039 
L 358.496862 367.316039 
L 362.150457 373.502051 
L 363.977255 370.319926 
L 365.804053 373.502051 
L 367.630851 370.319926 
L 369.457649 373.502051 
L 374.938043 373.502051 
L 376.764841 376.868598 
L 378.591639 373.502051 
L 380.418437 376.868598 
L 384.072032 376.868598 
L 385.89883 380.419988 
L 387.725628 376.868598 
L 391.379224 384.149317 
L 393.206022 380.419988 
L 395.03282 384.149317 
L 396.859618 384.149317 
L 398.686416 388.041025 
L 400.513214 384.149317 
L 402.340012 384.149317 
L 404.166809 388.041025 
L 405.993607 388.041025 
L 407.820405 392.07012 
L 409.647203 388.041025 
L 411.474001 392.07012 
L 422.434789 392.07012 
L 426.088384 400.395435 
L 427.915182 392.07012 
L 431.568778 400.395435 
L 438.87597 400.395435 
L 440.702768 404.601788 
L 442.529566 400.395435 
L 444.356364 404.601788 
L 451.663555 404.601788 
L 453.490353 408.771771 
L 455.317151 404.601788 
L 458.970747 412.857559 
L 460.797545 412.857559 
L 462.624343 408.771771 
L 464.451141 412.857559 
L 469.931534 412.857559 
L 471.758332 416.816561 
L 473.58513 412.857559 
L 475.411928 416.816561 
L 480.892322 416.816561 
L 482.71912 420.613941 
L 486.372716 420.613941 
L 488.199514 416.816561 
L 490.026312 416.816561 
L 493.679907 424.223943 
L 495.506705 424.223943 
L 497.333503 420.613941 
L 499.160301 424.223943 
L 500.987099 420.613941 
L 502.813897 424.223943 
L 504.640695 424.223943 
L 506.467493 427.63002 
L 508.294291 424.223943 
L 510.121089 427.63002 
L 513.774684 427.63002 
L 515.601482 424.223943 
L 517.42828 424.223943 
L 519.255078 430.82404 
L 521.081876 430.82404 
L 522.908674 427.63002 
L 524.735472 430.82404 
L 526.56227 430.82404 
L 528.389068 433.80493 
L 533.869461 433.80493 
L 535.696259 430.82404 
L 537.523057 433.80493 
L 543.003451 433.80493 
L 544.830249 436.577077 
L 546.657047 433.80493 
L 548.483845 436.577077 
L 553.964239 436.577077 
L 555.791036 433.80493 
L 557.617834 436.577077 
L 561.27143 436.577077 
L 563.098228 439.148786 
L 564.925026 436.577077 
L 566.751824 436.577077 
L 568.578622 439.148786 
L 570.40542 436.577077 
L 572.232218 436.577077 
L 574.059016 439.148786 
L 579.539409 439.148786 
L 581.366207 441.530912 
L 583.193005 441.530912 
L 585.019803 439.148786 
L 586.846601 436.577077 
L 588.673399 441.530912 
L 597.807389 441.530912 
L 599.634186 443.735757 
L 601.460984 443.735757 
L 603.287782 441.530912 
L 605.11458 443.735757 
L 606.941378 443.735757 
L 608.768176 441.530912 
L 610.594974 443.735757 
L 612.421772 441.530912 
L 616.075368 445.776235 
L 617.902166 443.735757 
L 623.382559 443.735757 
L 625.209357 445.776235 
L 627.036155 443.735757 
L 628.862953 445.776235 
L 632.516549 445.776235 
L 634.343347 447.665267 
L 636.170145 445.776235 
L 641.650539 445.776235 
L 643.477336 447.665267 
L 645.304134 445.776235 
L 647.130932 445.776235 
L 648.95773 447.665267 
L 650.784528 447.665267 
L 652.611326 445.776235 
L 654.438124 447.665267 
L 656.264922 445.776235 
L 658.09172 445.776235 
L 659.918518 447.665267 
L 661.745316 447.665267 
L 663.572113 449.415383 
L 665.398911 447.665267 
L 667.225709 447.665267 
L 669.052507 449.415383 
L 670.879305 447.665267 
L 672.706103 447.665267 
L 674.532901 449.415383 
L 676.359699 447.665267 
L 678.186497 447.665267 
L 680.013295 449.415383 
L 685.493688 449.415383 
L 687.320486 451.03846 
L 689.147284 449.415383 
L 690.974082 449.415383 
L 692.80088 451.03846 
L 701.93487 451.03846 
L 703.761668 449.415383 
L 705.588466 451.03846 
L 707.415263 449.415383 
L 711.068859 452.545588 
L 712.895657 449.415383 
L 716.549253 452.545588 
L 718.376051 452.545588 
L 720.202849 451.03846 
L 722.029647 452.545588 
L 723.856445 451.03846 
L 725.683243 451.03846 
L 727.510041 452.545588 
L 731.163636 452.545588 
L 732.990434 453.946998 
L 734.817232 452.545588 
L 736.64403 453.946998 
L 738.470828 452.545588 
L 745.77802 452.545588 
L 747.604818 453.946998 
L 749.431616 452.545588 
L 753.085211 455.252058 
L 754.912009 452.545588 
L 756.738807 453.946998 
L 758.565605 452.545588 
L 760.392403 452.545588 
L 762.219201 455.252058 
L 765.872797 452.545588 
L 767.699595 453.946998 
L 773.179988 453.946998 
L 775.006786 455.252058 
L 776.833584 453.946998 
L 780.48718 456.469292 
L 782.313978 455.252058 
L 791.447968 455.252058 
L 793.274765 456.469292 
L 795.101563 455.252058 
L 796.928361 456.469292 
L 798.755159 455.252058 
L 800.581957 456.469292 
L 802.408755 455.252058 
L 806.062351 455.252058 
L 807.889149 456.469292 
L 813.369543 456.469292 
L 815.19634 457.606426 
L 817.023138 456.469292 
L 820.676734 456.469292 
L 822.503532 457.606426 
L 824.33033 456.469292 
L 826.157128 457.606426 
L 827.983926 456.469292 
L 833.46432 456.469292 
L 835.291118 457.606426 
L 844.425107 457.606426 
L 846.251905 458.670447 
L 848.078703 457.606426 
L 862.693086 457.606426 
L 864.519884 458.670447 
L 866.346682 458.670447 
L 868.17348 457.606426 
L 870.000278 458.670447 
L 871.827076 458.670447 
L 873.653874 457.606426 
L 875.480672 458.670447 
L 891.921853 458.670447 
L 893.748651 459.667655 
L 897.402247 457.606426 
L 899.229045 459.667655 
L 902.88264 459.667655 
L 904.709438 458.670447 
L 906.536236 459.667655 
L 908.363034 458.670447 
L 912.01663 458.670447 
L 913.843428 459.667655 
L 915.670226 458.670447 
L 917.497024 459.667655 
L 919.323822 459.667655 
L 921.15062 460.603734 
L 922.977417 458.670447 
L 924.804215 460.603734 
L 926.631013 460.603734 
L 930.284609 458.670447 
L 932.111407 460.603734 
L 933.938205 460.603734 
L 935.765003 459.667655 
L 939.418599 459.667655 
L 941.245397 460.603734 
L 943.072195 459.667655 
L 948.552588 459.667655 
L 950.379386 461.483804 
L 952.206184 459.667655 
L 954.032982 460.603734 
L 955.85978 460.603734 
L 957.686578 459.667655 
L 959.513376 461.483804 
L 961.340174 460.603734 
L 964.99377 460.603734 
L 966.820567 459.667655 
L 968.647365 460.603734 
L 970.474163 460.603734 
L 972.300961 459.667655 
L 974.127759 460.603734 
L 975.954557 460.603734 
L 977.781355 459.667655 
L 981.434951 461.483804 
L 985.088547 459.667655 
L 988.742142 461.483804 
L 990.56894 460.603734 
L 992.395738 461.483804 
L 994.222536 460.603734 
L 996.049334 461.483804 
L 997.876132 461.483804 
L 999.70293 460.603734 
L 1001.529728 460.603734 
L 1003.356526 461.483804 
L 1010.663717 461.483804 
L 1012.490515 462.312483 
L 1014.317313 460.603734 
L 1016.144111 461.483804 
L 1017.970909 461.483804 
L 1017.970909 461.483804 
" clip-path="url(#p6ae5303fbb)" style="fill: none; stroke: #bfbf00; stroke-width: 1.5; stroke-linecap: square"/>
   </g>
   <g id="patch_3">
    <path d="M 114.528 482.281533 
L 114.528 42.962431 
" style="fill: none; stroke: #000000; stroke-width: 0.8; stroke-linejoin: miter; stroke-linecap: square"/>
   </g>
   <g id="patch_4">
    <path d="M 1060.992 482.281533 
L 1060.992 42.962431 
" style="fill: none; stroke: #000000; stroke-width: 0.8; stroke-linejoin: miter; stroke-linecap: square"/>
   </g>
   <g id="patch_5">
    <path d="M 114.528 482.281533 
L 1060.992 482.281533 
" style="fill: none; stroke: #000000; stroke-width: 0.8; stroke-linejoin: miter; stroke-linecap: square"/>
   </g>
   <g id="patch_6">
    <path d="M 114.528 42.962431 
L 1060.992 42.962431 
" style="fill: none; stroke: #000000; stroke-width: 0.8; stroke-linejoin: miter; stroke-linecap: square"/>
   </g>
   <g id="text_18">
    <!-- Откалиброванные графики -->
    <g transform="translate(500.740312 36.962431)scale(0.12 -0.12)">
     <defs>
      <path id="DejaVuSans-41e" d="M 2522 4238 
Q 1834 4238 1429 3725 
Q 1025 3213 1025 2328 
Q 1025 1447 1429 934 
Q 1834 422 2522 422 
Q 3209 422 3611 934 
Q 4013 1447 4013 2328 
Q 4013 3213 3611 3725 
Q 3209 4238 2522 4238 
z
M 2522 4750 
Q 3503 4750 4090 4092 
Q 4678 3434 4678 2328 
Q 4678 1225 4090 567 
Q 3503 -91 2522 -91 
Q 1538 -91 948 565 
Q 359 1222 359 2328 
Q 359 3434 948 4092 
Q 1538 4750 2522 4750 
z
" transform="scale(0.015625)"/>
      <path id="DejaVuSans-43b" d="M 238 0 
L 238 478 
Q 806 566 981 959 
Q 1194 1513 1194 2928 
L 1194 3500 
L 3559 3500 
L 3559 0 
L 2984 0 
L 2984 3041 
L 1769 3041 
L 1769 2694 
Q 1769 1344 1494 738 
Q 1200 91 238 0 
z
" transform="scale(0.015625)"/>
      <path id="DejaVuSans-431" d="M 1991 3584 
Q 2741 3584 3169 3096 
Q 3597 2609 3597 1747 
Q 3597 888 3169 398 
Q 2741 -91 1991 -91 
Q 1238 -91 822 384 
Q 406 859 384 1747 
L 366 2463 
Q 350 2834 350 2963 
Q 350 3463 531 3831 
Q 816 4409 1308 4659 
Q 1800 4909 2625 4916 
Q 3006 4919 3175 4972 
L 3334 4516 
Q 3181 4453 3041 4450 
L 2259 4397 
Q 1866 4369 1628 4231 
Q 1006 3866 947 3388 
L 925 3213 
Q 1331 3584 1991 3584 
z
M 1991 3097 
Q 1528 3097 1259 2736 
Q 991 2375 991 1747 
Q 991 1119 1258 758 
Q 1525 397 1991 397 
Q 2450 397 2719 759 
Q 2988 1122 2988 1747 
Q 2988 2369 2719 2733 
Q 2450 3097 1991 3097 
z
" transform="scale(0.015625)"/>
      <path id="DejaVuSans-433" d="M 581 0 
L 581 3500 
L 3050 3500 
L 3050 3041 
L 1159 3041 
L 1159 0 
L 581 0 
z
" transform="scale(0.015625)"/>
      <path id="DejaVuSans-444" d="M 947 1747 
Q 947 1013 1173 702 
Q 1400 391 1784 391 
Q 2091 391 2447 916 
L 2447 2578 
Q 2091 3103 1784 3103 
Q 1400 3103 1173 2792 
Q 947 2481 947 1747 
z
M 2447 -1331 
L 2447 447 
Q 2269 153 2064 31 
Q 1859 -91 1600 -91 
Q 1078 -91 714 392 
Q 350 875 350 1734 
Q 350 2594 714 3089 
Q 1078 3584 1600 3584 
Q 1859 3584 2064 3465 
Q 2269 3347 2447 3053 
L 2447 4666 
L 3025 4666 
L 3025 3053 
Q 3203 3347 3408 3465 
Q 3613 3584 3872 3584 
Q 4394 3584 4758 3089 
Q 5122 2594 5122 1734 
Q 5122 875 4758 392 
Q 4394 -91 3872 -91 
Q 3613 -91 3408 31 
Q 3203 153 3025 447 
L 3025 -1331 
L 2447 -1331 
z
M 4525 1747 
Q 4525 2481 4298 2792 
Q 4072 3103 3688 3103 
Q 3381 3103 3025 2578 
L 3025 916 
Q 3381 391 3688 391 
Q 4072 391 4298 702 
Q 4525 1013 4525 1747 
z
" transform="scale(0.015625)"/>
     </defs>
     <use xlink:href="#DejaVuSans-41e"/>
     <use xlink:href="#DejaVuSans-442" x="78.710938"/>
     <use xlink:href="#DejaVuSans-43a" x="136.962891"/>
     <use xlink:href="#DejaVuSans-430" x="197.363281"/>
     <use xlink:href="#DejaVuSans-43b" x="258.642578"/>
     <use xlink:href="#DejaVuSans-438" x="322.558594"/>
     <use xlink:href="#DejaVuSans-431" x="387.548828"/>
     <use xlink:href="#DejaVuSans-440" x="449.21875"/>
     <use xlink:href="#DejaVuSans-43e" x="512.695312"/>
     <use xlink:href="#DejaVuSans-432" x="573.876953"/>
     <use xlink:href="#DejaVuSans-430" x="632.8125"/>
     <use xlink:href="#DejaVuSans-43d" x="694.091797"/>
     <use xlink:href="#DejaVuSans-43d" x="759.472656"/>
     <use xlink:href="#DejaVuSans-44b" x="824.853516"/>
     <use xlink:href="#DejaVuSans-435" x="903.808594"/>
     <use xlink:href="#DejaVuSans-20" x="965.332031"/>
     <use xlink:href="#DejaVuSans-433" x="997.119141"/>
     <use xlink:href="#DejaVuSans-440" x="1049.658203"/>
     <use xlink:href="#DejaVuSans-430" x="1113.134766"/>
     <use xlink:href="#DejaVuSans-444" x="1174.414062"/>
     <use xlink:href="#DejaVuSans-438" x="1259.912109"/>
     <use xlink:href="#DejaVuSans-43a" x="1324.902344"/>
     <use xlink:href="#DejaVuSans-438" x="1385.302734"/>
    </g>
   </g>
   <g id="legend_1">
    <g id="patch_7">
     <path d="M 964.271687 109.674931 
L 1053.992 109.674931 
Q 1055.992 109.674931 1055.992 107.674931 
L 1055.992 49.962431 
Q 1055.992 47.962431 1053.992 47.962431 
L 964.271687 47.962431 
Q 962.271687 47.962431 962.271687 49.962431 
L 962.271687 107.674931 
Q 962.271687 109.674931 964.271687 109.674931 
z
" style="fill: #ffffff; opacity: 0.8; stroke: #cccccc; stroke-linejoin: miter"/>
    </g>
    <g id="line2d_139">
     <path d="M 966.271687 56.060869 
L 976.271687 56.060869 
L 986.271687 56.060869 
" style="fill: none; stroke: #0000ff; stroke-width: 1.5; stroke-linecap: square"/>
    </g>
    <g id="text_19">
     <!-- При 20мм -->
     <g transform="translate(994.271687 59.560869)scale(0.1 -0.1)">
      <defs>
       <path id="DejaVuSans-41f" d="M 4184 4666 
L 4184 0 
L 3553 0 
L 3553 4134 
L 1259 4134 
L 1259 0 
L 628 0 
L 628 4666 
L 4184 4666 
z
" transform="scale(0.015625)"/>
      </defs>
      <use xlink:href="#DejaVuSans-41f"/>
      <use xlink:href="#DejaVuSans-440" x="75.195312"/>
      <use xlink:href="#DejaVuSans-438" x="138.671875"/>
      <use xlink:href="#DejaVuSans-20" x="203.662109"/>
      <use xlink:href="#DejaVuSans-32" x="235.449219"/>
      <use xlink:href="#DejaVuSans-30" x="299.072266"/>
      <use xlink:href="#DejaVuSans-43c" x="362.695312"/>
      <use xlink:href="#DejaVuSans-43c" x="438.134766"/>
     </g>
    </g>
    <g id="line2d_140">
     <path d="M 966.271687 70.738994 
L 976.271687 70.738994 
L 986.271687 70.738994 
" style="fill: none; stroke: #ff0000; stroke-width: 1.5; stroke-linecap: square"/>
    </g>
    <g id="text_20">
     <!-- При 45мм -->
     <g transform="translate(994.271687 74.238994)scale(0.1 -0.1)">
      <use xlink:href="#DejaVuSans-41f"/>
      <use xlink:href="#DejaVuSans-440" x="75.195312"/>
      <use xlink:href="#DejaVuSans-438" x="138.671875"/>
      <use xlink:href="#DejaVuSans-20" x="203.662109"/>
      <use xlink:href="#DejaVuSans-34" x="235.449219"/>
      <use xlink:href="#DejaVuSans-35" x="299.072266"/>
      <use xlink:href="#DejaVuSans-43c" x="362.695312"/>
      <use xlink:href="#DejaVuSans-43c" x="438.134766"/>
     </g>
    </g>
    <g id="line2d_141">
     <path d="M 966.271687 85.417119 
L 976.271687 85.417119 
L 986.271687 85.417119 
" style="fill: none; stroke: #008000; stroke-width: 1.5; stroke-linecap: square"/>
    </g>
    <g id="text_21">
     <!-- При 80мм -->
     <g transform="translate(994.271687 88.917119)scale(0.1 -0.1)">
      <use xlink:href="#DejaVuSans-41f"/>
      <use xlink:href="#DejaVuSans-440" x="75.195312"/>
      <use xlink:href="#DejaVuSans-438" x="138.671875"/>
      <use xlink:href="#DejaVuSans-20" x="203.662109"/>
      <use xlink:href="#DejaVuSans-38" x="235.449219"/>
      <use xlink:href="#DejaVuSans-30" x="299.072266"/>
      <use xlink:href="#DejaVuSans-43c" x="362.695312"/>
      <use xlink:href="#DejaVuSans-43c" x="438.134766"/>
     </g>
    </g>
    <g id="line2d_142">
     <path d="M 966.271687 100.095244 
L 976.271687 100.095244 
L 986.271687 100.095244 
" style="fill: none; stroke: #bfbf00; stroke-width: 1.5; stroke-linecap: square"/>
    </g>
    <g id="text_22">
     <!-- При 120мм -->
     <g transform="translate(994.271687 103.595244)scale(0.1 -0.1)">
      <use xlink:href="#DejaVuSans-41f"/>
      <use xlink:href="#DejaVuSans-440" x="75.195312"/>
      <use xlink:href="#DejaVuSans-438" x="138.671875"/>
      <use xlink:href="#DejaVuSans-20" x="203.662109"/>
      <use xlink:href="#DejaVuSans-31" x="235.449219"/>
      <use xlink:href="#DejaVuSans-32" x="299.072266"/>
      <use xlink:href="#DejaVuSans-30" x="362.695312"/>
      <use xlink:href="#DejaVuSans-43c" x="426.318359"/>
      <use xlink:href="#DejaVuSans-43c" x="501.757812"/>
     </g>
    </g>
   </g>
  </g>
 </g>
 <defs>
  <clipPath id="p6ae5303fbb">
   <rect x="114.528" y="42.962431" width="946.464" height="439.319102"/>
  </clipPath>
 </defs>
</svg>
